<?xml version="1.0" encoding="utf-8"?>
<!-- Generator: Adobe Illustrator 16.0.0, SVG Export Plug-In . SVG Version: 6.00 Build 0)  -->
<!DOCTYPE svg PUBLIC "-//W3C//DTD SVG 1.1//EN" "http://www.w3.org/Graphics/SVG/1.1/DTD/svg11.dtd">
<svg version="1.1" id="Layer_1" xmlns="http://www.w3.org/2000/svg" xmlns:xlink="http://www.w3.org/1999/xlink" x="0px" y="0px"
	 width="451px" height="458px" viewBox="0 0 451 458" enable-background="new 0 0 451 458" xml:space="preserve">
<g>
	<g>
		<defs>
			<rect id="SVGID_1_" x="-65.437" y="-61.482" width="572.598" height="572.599"/>
		</defs>
		<clipPath id="SVGID_2_">
			<use xlink:href="#SVGID_1_"  overflow="visible"/>
		</clipPath>
		<path clip-path="url(#SVGID_2_)" fill="#FFFFFF" d="M370.862,224.816c0-82.844-67.157-150-150-150s-149.999,67.156-149.999,150
			c0,82.842,67.156,149.999,149.999,149.999S370.862,307.658,370.862,224.816"/>
		<path clip-path="url(#SVGID_2_)" fill="#E9A837" d="M147.448,242.67c9.207,14.932,16.247,16.865,16.247,16.865
			c8.937-4.699,12.187-19.354,19.769-33.455c7.582-14.104,30.869-11.891,30.869-11.891c-18.143-4.701-49.283,7.465-56.053,8.02
			c-6.771,0.553-30.871-1.107-49.014,10.506c-18.144,11.613-36.828,10.783-36.828,10.783s0.813-17.141,21.933-24.057
			c21.122-6.912,34.663-15.485,34.663-15.485c-3.25,2.49-21.394,9.403-33.85,12.444c-12.457,3.041-20.581,13.273-26.267,14.934
			c-5.687,1.656-15.977-3.043-15.977-3.043c4.875-9.123,17.602-13.549,31.412-14.377c13.81-0.83,32.224-8.85,32.224-8.85
			s-18.686,4.424-30.6,5.807c-11.916,1.383-35.743-1.105-35.743-1.105c18.684-13.827,68.238-9.127,68.238-9.127
			c-5.146-2.211-15.978-10.507-27.413-29.308c-11.437-18.805-1.021-41.201-1.021-41.201c-0.813,8.297,6.5,19.91,6.5,19.91
			s20.038-21.846,54.971-29.035c34.934-7.188,63.907,16.592,63.907,16.592c-11.645-16.039-33.036-18.803-33.036-18.803
			c4.332-6.084,24.911-8.85,24.911-8.85c-18.142-4.424-36.827,6.914-38.722,6.639c-18.28-2.668-42.245,8.568-42.245,8.568
			c13-11.334,23.83-29.861,23.83-29.861c-18.955,10.783-39.265,10.783-39.265,10.783c13.81-39.264,66.887-21.014,66.887-21.014
			c-15.978-12.166-43.327-6.359-43.327-6.359c21.121-18.527,47.931-15.486,47.931-15.486c-17.061-7.188-34.663,3.32-34.663,3.32
			c2.168-3.043,3.521-16.316,3.521-16.316c-5.416,16.039-20.58,22.951-20.58,22.951c9.748-12.443,9.207-25.398,9.207-25.398
			c-6.229,33.459-16.791,32.035-28.976,41.988c-12.187,9.955-26.268,39.541-26.268,39.541c-1.896-4.148-0.27-13.824-0.27-13.824
			C70.814,126.811,70,140.637,71.627,160.545c1.625,19.91,0.541,22.674-11.375,30.141c-26.963,16.896-33.577,43.962-33.577,43.962
			c3.25,8.574,12.728,15.209,12.728,15.209c-6.229,4.703-7.041,18.529-7.041,18.529c15.436,12.996,27.621,8.016,27.621,8.016
			c-18.143,21.018-4.062,50.049-4.062,50.049c-4.333-14.102,1.624-31.244,1.624-31.244c2.167,14.934,11.103,22.121,11.103,22.121
			c-20.579-36.775,15.164-58.896,15.164-58.896c-4.333,21.014,3.519,40.092,3.519,40.092c-5.686-42.857,11.104-54.471,11.104-54.471
			c-4.71,29.865,0,39.264,0,39.264c16.248-0.277,34.392-15.76,34.392-15.76C145.214,256.064,147.448,242.67,147.448,242.67"/>
		<path clip-path="url(#SVGID_2_)" fill="#E9A837" d="M171.277,215.018c0,0-14.014,5.02-29.854,3.133
			c-15.842-1.889-35.541,13.262-35.541,13.262s10.764-13.906,23.761-17.432c0,0-13.134,0.018-22.002,3.639
			c0,0,15.978-7.371,21.122-9.236c5.145-1.868,6.77-7.26,6.77-7.26s-21.918-5.393-32.183-19.494
			c-10.263-14.1-14.934-15.76-14.324-42.098c0,0,6.295,30.9,26.604,31.107c20.31,0.207,33.512-15.346,61.742-15.346
			c7.514,0,21.323,6.014,26.808,16.174c0,0-30.668-15.553-54.023,6.637c0,0,13.404-3.939,23.153-0.621
			c0,0-16.153-0.811-29.245,6.326c-7.351,4.006-16.285,7.801-20.145,7.389c0,0,14.089,7.198,18.722,10.962
			C146.646,205.414,155.905,214.811,171.277,215.018"/>
		<path clip-path="url(#SVGID_2_)" fill="#E9A837" d="M213.927,207.346c0,0-17.764-28.719-41.431-27.168
			c-23.668,1.551-33.702,11.303-38.847,11.59c0,0,10.211,6.866,15.287,11.638c5.078,4.77,14.827,13.479,55.242,4.977
			c0,0-3.858-2.491-11.374-1.244c-7.515,1.244-29.041,1.865-39.196-7.676C153.608,199.462,171.887,168.564,213.927,207.346"/>
		<path clip-path="url(#SVGID_2_)" fill="#E9A837" d="M294.309,242.67c-9.206,14.932-16.247,16.865-16.247,16.865
			c-8.937-4.699-12.186-19.354-19.768-33.455c-7.583-14.104-30.871-11.891-30.871-11.891c18.144-4.701,49.285,7.465,56.054,8.02
			c6.771,0.553,30.872-1.107,49.015,10.506c18.144,11.613,36.827,10.783,36.827,10.783s-0.812-17.141-21.934-24.057
			c-21.122-6.912-34.662-15.485-34.662-15.485c3.25,2.49,21.394,9.403,33.851,12.444c12.456,3.041,20.58,13.273,26.267,14.934
			c5.686,1.656,15.978-3.043,15.978-3.043c-4.875-9.123-17.604-13.549-31.413-14.377c-13.811-0.83-32.225-8.85-32.225-8.85
			s18.686,4.424,30.601,5.807c11.914,1.383,35.744-1.105,35.744-1.105c-18.685-13.827-68.239-9.127-68.239-9.127
			c5.144-2.211,15.976-10.507,27.412-29.308c11.437-18.805,1.021-41.201,1.021-41.201c0.813,8.297-6.499,19.91-6.499,19.91
			s-20.039-21.846-54.972-29.035c-34.932-7.188-63.907,16.592-63.907,16.592c11.645-16.039,33.036-18.803,33.036-18.803
			c-4.331-6.084-24.912-8.85-24.912-8.85c18.144-4.424,36.829,6.914,38.723,6.639c18.279-2.668,42.245,8.568,42.245,8.568
			c-12.998-11.334-23.831-29.861-23.831-29.861c18.956,10.783,39.267,10.783,39.267,10.783
			c-13.812-39.264-66.888-21.014-66.888-21.014c15.979-12.166,43.328-6.359,43.328-6.359
			c-21.122-18.527-47.932-15.486-47.932-15.486c17.061-7.188,34.662,3.32,34.662,3.32c-2.167-3.043-3.521-16.316-3.521-16.316
			c5.416,16.039,20.581,22.951,20.581,22.951c-9.749-12.443-9.207-27.512-9.207-27.512c6.228,33.457,16.79,34.148,28.976,44.102
			c12.186,9.955,26.267,39.541,26.267,39.541c1.896-4.148,0.271-13.824,0.271-13.824c13.541,11.336,14.352,25.162,12.728,45.07
			c-1.625,19.91-0.542,22.674,11.373,30.141c26.964,16.896,33.578,43.962,33.578,43.962c-3.249,8.574-12.729,15.209-12.729,15.209
			c6.23,4.703,7.041,18.529,7.041,18.529c-15.434,12.996-27.619,8.016-27.619,8.016c18.142,21.018,4.061,50.049,4.061,50.049
			c4.333-14.102-1.624-31.244-1.624-31.244c-2.167,14.934-11.103,22.121-11.103,22.121c20.58-36.775-15.164-58.896-15.164-58.896
			c4.333,21.014-3.521,40.092-3.521,40.092c5.687-42.857-11.103-54.471-11.103-54.471c4.71,29.865,0,39.264,0,39.264
			c-16.247-0.277-34.391-15.76-34.391-15.76C298.122,258.857,294.309,242.67,294.309,242.67"/>
		<path clip-path="url(#SVGID_2_)" fill="#E9A837" d="M270.479,215.018c0,0,14.016,5.02,29.855,3.133
			c15.841-1.889,35.542,13.262,35.542,13.262s-10.763-13.906-23.762-17.432c0,0,13.134,0.018,22.003,3.639
			c0,0-15.978-7.371-21.122-9.236c-5.146-1.868-6.771-7.26-6.771-7.26s21.917-5.393,32.183-19.494
			c10.265-14.1,14.936-15.76,14.328-42.098c0,0-6.298,30.9-26.607,31.107c-20.309,0.207-33.51-15.346-61.741-15.346
			c-7.513,0-21.324,6.014-26.808,16.174c0,0,30.668-15.553,54.022,6.637c0,0-13.402-3.939-23.151-0.621
			c0,0,16.091-0.066,29.246,6.326c8.322,4.043,16.008,8.024,19.865,7.608c0,0-13.604,6.979-18.443,10.743
			C295.042,205.328,288.786,214.4,270.479,215.018"/>
		<path clip-path="url(#SVGID_2_)" fill="#E9A837" d="M227.829,207.346c0,0,17.767-28.719,41.433-27.168
			c23.667,1.551,34.218,11.467,39.364,11.756c0,0-10.729,6.7-15.807,11.472c-5.077,4.77-14.826,13.479-55.242,4.977
			c0,0,3.859-2.491,11.374-1.244c7.517,1.244,29.042,1.865,39.197-7.676C288.148,199.462,269.869,168.564,227.829,207.346"/>
		<path clip-path="url(#SVGID_2_)" fill="#E9A837" d="M209.861,111.283c0,0,5.845,9.982,17.463,4.889s2.471-9.715-2.875-6.707
			C219.106,112.471,213.528,113.096,209.861,111.283"/>
		<path clip-path="url(#SVGID_2_)" fill="#E9A837" d="M232.418,108.277c0,0-5.845-9.98-17.46-4.889
			c-11.619,5.094-2.474,9.713,2.871,6.707C223.176,107.09,228.751,106.465,232.418,108.277"/>
		<path clip-path="url(#SVGID_2_)" fill="#E9A837" d="M212.799,198.396c0,0-12.865-17.992-36.377-26.181
			C176.422,172.215,205.323,166.988,212.799,198.396"/>
		<path clip-path="url(#SVGID_2_)" fill="#E9A837" d="M228.994,198.396c0,0,12.865-17.992,36.377-26.181
			C265.371,172.215,236.472,166.988,228.994,198.396"/>
		<path clip-path="url(#SVGID_2_)" fill="#E9A837" d="M219.329,235.82c0,0-12.594-11.484,2.868-16.264
			C222.197,219.557,213.554,223.236,219.329,235.82"/>
		<path clip-path="url(#SVGID_2_)" fill="#C22026" d="M405.233,221.654c0,0-3.961,6.43-9.75,8.398c0,0,6.906,9.748,6.703,15.348
			c0,0,7.435-5.193,9.342-10.473C411.528,234.928,409.803,226.32,405.233,221.654"/>
		<path clip-path="url(#SVGID_2_)" fill="#C22026" d="M393.962,257.115c0,0,2.944,7.363,2.641,13.689c0,0,7.006-1.141,9.038-4.459
			c0,0-1.778-10.568-5.84-13.688C399.801,252.658,397.109,256.082,393.962,257.115"/>
		<path clip-path="url(#SVGID_2_)" fill="#E83628" d="M212.799,206.318c0,0-0.839-0.678-2.353-1.777
			c-1.511-1.107-3.703-2.623-6.396-4.313c-1.349-0.84-2.833-1.705-4.409-2.596c-1.583-0.881-3.29-1.734-5.058-2.592
			c-1.771-0.855-3.654-1.615-5.564-2.368c-1.914-0.748-3.9-1.393-5.908-1.928c-2-0.568-4.028-1.036-6.047-1.36
			c-0.424-0.066-1.047-0.156-1.488-0.195c-0.461-0.053-0.934-0.094-1.42-0.111c-0.959-0.035-1.912-0.021-2.842,0.084
			c-1.859,0.203-3.641,0.627-5.272,1.243c-1.626,0.625-3.121,1.383-4.438,2.207c-2.636,1.651-4.614,3.437-5.948,4.733
			c-1.334,1.305-2.047,2.117-2.047,2.117s0.135-0.232,0.385-0.67c0.26-0.436,0.634-1.078,1.182-1.852
			c1.086-1.549,2.779-3.723,5.375-5.81c1.291-1.043,2.807-2.067,4.56-2.895c1.746-0.836,3.717-1.521,5.84-1.836
			c1.058-0.176,2.147-0.252,3.252-0.268c0.545-0.01,1.109,0.008,1.689,0.047c0.598,0.039,1.016,0.1,1.635,0.18
			c2.148,0.309,4.305,0.764,6.43,1.33c2.117,0.604,4.197,1.318,6.193,2.137c2.004,0.803,3.896,1.768,5.699,2.731
			c3.601,1.95,6.733,4.142,9.257,6.192c2.537,2.035,4.471,3.938,5.758,5.32C212.149,205.455,212.799,206.318,212.799,206.318"/>
		<path clip-path="url(#SVGID_2_)" fill="#E83628" d="M228.994,206.318c0,0,0.648-0.863,1.937-2.248
			c1.288-1.383,3.22-3.285,5.757-5.32c2.524-2.051,5.658-4.242,9.257-6.192c1.807-0.963,3.696-1.928,5.701-2.731
			c1.996-0.818,4.077-1.533,6.192-2.137c2.126-0.566,4.282-1.021,6.43-1.33c0.619-0.08,1.037-0.141,1.634-0.18
			c0.58-0.039,1.146-0.057,1.692-0.047c1.102,0.016,2.191,0.092,3.251,0.268c2.122,0.314,4.093,1,5.838,1.836
			c1.753,0.828,3.271,1.852,4.56,2.895c2.597,2.087,4.29,4.261,5.375,5.81c0.55,0.773,0.924,1.416,1.183,1.852
			c0.252,0.438,0.384,0.67,0.384,0.67s-0.711-0.813-2.045-2.117c-1.334-1.297-3.314-3.082-5.949-4.733
			c-1.317-0.824-2.811-1.582-4.438-2.207c-1.632-0.616-3.414-1.04-5.274-1.243c-0.927-0.105-1.88-0.119-2.841-0.084
			c-0.487,0.018-0.958,0.059-1.419,0.111c-0.443,0.039-1.065,0.129-1.489,0.195c-2.017,0.324-4.046,0.792-6.047,1.36
			c-2.007,0.535-3.994,1.18-5.909,1.928c-1.91,0.753-3.792,1.513-5.562,2.368c-1.771,0.857-3.478,1.711-5.061,2.592
			c-1.576,0.891-3.059,1.756-4.409,2.596c-2.69,1.689-4.885,3.205-6.393,4.313C229.834,205.64,228.994,206.318,228.994,206.318"/>
		<path clip-path="url(#SVGID_2_)" fill="#E83628" d="M171.645,180.125c-1.833,0.105-3.646,0.375-5.447,0.639
			c-0.9,0.133-1.796,0.301-2.688,0.475c-0.891,0.174-1.781,0.346-2.663,0.553c-1.771,0.385-3.509,0.889-5.239,1.387
			c-0.857,0.279-1.727,0.512-2.568,0.828c-0.847,0.301-1.699,0.584-2.524,0.932c-0.833,0.332-1.665,0.656-2.479,1.023
			c-0.826,0.354-1.625,0.703-2.462,1.1c-1.639,0.766-3.243,1.564-4.848,2.406c-1.599,0.846-3.2,1.696-4.892,2.543
			c-1.688,0.848-3.539,1.606-5.428,2.134l0.243-3.7c1.708,0.715,3.14,1.461,4.619,2.316c1.455,0.845,2.871,1.743,4.255,2.685
			c0.703,0.475,1.354,0.934,2.072,1.459c0.31,0.225,0.689,0.529,1.037,0.811l0.983,0.836c1.276,1.121,2.446,2.234,3.61,3.289
			c2.32,2.107,4.781,3.85,7.548,5.104c2.755,1.254,5.729,2.133,8.814,2.637c1.541,0.268,3.106,0.439,4.685,0.559
			c1.51,0.135,3.233,0.213,4.813,0.279c1.592,0.047,3.188,0.088,4.802,0.066c1.608,0.016,3.222-0.023,4.834-0.076
			c1.612-0.049,3.223-0.164,4.839-0.258c1.613-0.111,3.227-0.246,4.84-0.414c1.608-0.188,3.228-0.344,4.836-0.582
			c1.611-0.227,3.222-0.467,4.829-0.773c-3.059,1.168-6.23,2.035-9.427,2.787c-1.602,0.357-3.215,0.68-4.832,0.982
			c-1.62,0.285-3.249,0.52-4.883,0.727c-1.635,0.199-3.274,0.4-4.92,0.516c-1.642,0.131-3.301,0.197-4.969,0.256
			c-1.678,0.033-3.213,0.068-4.953,0.033c-1.677-0.047-3.357-0.176-5.04-0.395c-3.354-0.441-6.752-1.195-9.94-2.627
			c-1.593-0.709-3.14-1.545-4.584-2.518c-1.452-0.963-2.808-2.045-4.077-3.157c-1.275-1.105-2.447-2.258-3.605-3.303l-0.867-0.76
			c-0.283-0.232-0.535-0.445-0.879-0.703c-0.592-0.445-1.266-0.934-1.906-1.379c-1.299-0.906-2.624-1.771-3.975-2.58
			c-1.334-0.781-2.763-1.613-4.043-2.199l-5.209-2.382l5.453-1.318c1.653-0.399,3.227-0.975,4.84-1.709
			c1.613-0.723,3.258-1.564,4.955-2.313c1.685-0.76,3.408-1.49,5.129-2.172c0.838-0.342,1.741-0.668,2.621-0.977
			c0.877-0.334,1.776-0.598,2.676-0.857c0.894-0.279,1.806-0.492,2.709-0.723c0.9-0.244,1.822-0.402,2.729-0.607
			c0.912-0.188,1.833-0.334,2.75-0.477c0.925-0.111,1.841-0.258,2.765-0.338c1.842-0.215,3.693-0.299,5.54-0.322
			C167.969,179.838,169.818,179.924,171.645,180.125"/>
		<path clip-path="url(#SVGID_2_)" fill="#E83628" d="M270.112,180.125c1.826-0.201,3.676-0.287,5.521-0.258
			c1.847,0.023,3.7,0.107,5.542,0.322c0.924,0.08,1.84,0.227,2.764,0.338c0.917,0.143,1.838,0.289,2.749,0.477
			c0.908,0.205,1.83,0.363,2.73,0.607c0.903,0.23,1.814,0.443,2.709,0.723c0.899,0.26,1.798,0.523,2.676,0.857
			c0.88,0.309,1.783,0.635,2.621,0.977c1.721,0.682,3.444,1.412,5.13,2.172c1.697,0.748,3.341,1.59,4.955,2.313
			c1.612,0.734,3.186,1.311,4.839,1.709l5.453,1.318l-5.209,2.382c-1.28,0.586-2.708,1.418-4.042,2.199
			c-1.351,0.809-2.676,1.674-3.975,2.58c-0.642,0.445-1.315,0.934-1.906,1.379c-0.345,0.258-0.596,0.471-0.879,0.703l-0.869,0.76
			c-1.157,1.045-2.329,2.197-3.604,3.303c-1.27,1.111-2.625,2.194-4.077,3.157c-1.443,0.973-2.992,1.809-4.584,2.518
			c-3.188,1.432-6.587,2.186-9.939,2.627c-1.683,0.219-3.364,0.348-5.04,0.395c-1.741,0.035-3.277,0-4.954-0.033
			c-1.667-0.059-3.327-0.125-4.968-0.256c-1.647-0.115-3.287-0.316-4.92-0.516c-1.635-0.207-3.264-0.441-4.884-0.727
			c-1.617-0.303-3.229-0.625-4.831-0.982c-3.196-0.752-6.369-1.619-9.429-2.787c1.608,0.307,3.219,0.547,4.829,0.773
			c1.609,0.238,3.229,0.395,4.837,0.582c1.612,0.168,3.227,0.303,4.839,0.414c1.616,0.094,3.227,0.209,4.84,0.258
			c1.612,0.053,3.224,0.092,4.835,0.076c1.613,0.021,3.21-0.02,4.801-0.066c1.579-0.066,3.304-0.145,4.813-0.279
			c1.578-0.119,3.145-0.291,4.684-0.559c3.086-0.504,6.06-1.383,8.814-2.637c2.768-1.254,5.229-2.996,7.55-5.104
			c1.163-1.055,2.332-2.168,3.609-3.289l0.983-0.836c0.347-0.281,0.728-0.586,1.037-0.811c0.719-0.525,1.37-0.984,2.072-1.459
			c1.385-0.941,2.801-1.84,4.255-2.685c1.479-0.855,2.91-1.602,4.619-2.316l0.243,3.7c-1.889-0.527-3.739-1.286-5.428-2.134
			c-1.691-0.848-3.293-1.697-4.891-2.543c-1.604-0.842-3.209-1.641-4.849-2.406c-0.837-0.396-1.635-0.746-2.461-1.1
			c-0.814-0.367-1.647-0.691-2.479-1.023c-0.826-0.348-1.679-0.631-2.525-0.932c-0.842-0.316-1.711-0.549-2.568-0.828
			c-1.729-0.498-3.469-1.002-5.239-1.387c-0.883-0.207-1.772-0.379-2.664-0.553s-1.786-0.342-2.688-0.475
			C273.759,180.5,271.945,180.23,270.112,180.125"/>
		<path clip-path="url(#SVGID_2_)" fill="#E83628" d="M209.861,111.283c0,0,0.394-0.004,1.045-0.047
			c0.653-0.047,1.563-0.131,2.608-0.314c0.521-0.09,1.078-0.195,1.652-0.34c0.574-0.137,1.172-0.295,1.771-0.502
			c0.605-0.184,1.21-0.43,1.818-0.678c0.609-0.256,1.213-0.543,1.809-0.857c0.302-0.143,0.586-0.328,0.88-0.488l0.504-0.283
			l0.483-0.258l0.479-0.256l0.603-0.246c0.4-0.174,0.786-0.301,1.168-0.391c0.757-0.213,1.522-0.295,2.235-0.314
			c0.715-0.014,1.385,0.066,1.983,0.188c1.199,0.268,2.102,0.725,2.676,1.104c0.581,0.379,0.842,0.678,0.842,0.678
			s-0.392-0.053-1.04-0.078c-0.647-0.025-1.554-0.02-2.567,0.133c-0.506,0.078-1.04,0.186-1.581,0.342
			c-0.54,0.162-1.094,0.352-1.637,0.609c-0.276,0.125-0.548,0.25-0.784,0.396l-0.373,0.203l-0.457,0.291
			c-0.302,0.189-0.604,0.379-0.906,0.57c-0.344,0.201-0.676,0.428-1.035,0.609l-1.091,0.516c-0.368,0.16-0.753,0.277-1.124,0.414
			c-0.756,0.244-1.519,0.436-2.267,0.531c-0.743,0.125-1.477,0.148-2.162,0.135c-0.688-0.012-1.331-0.092-1.916-0.199
			c-1.17-0.225-2.092-0.588-2.701-0.9C210.163,111.539,209.861,111.283,209.861,111.283"/>
		<path clip-path="url(#SVGID_2_)" fill="#E83628" d="M107.1,113.539c0,0-11.374,15.482-8.666,29.311
			c0,0,24.372-12.445,30.329-32.629C128.763,110.221,116.038,115.197,107.1,113.539"/>
		<path clip-path="url(#SVGID_2_)" fill="#E83628" d="M64.449,214.396c0,0-13.201,4.873-15.74,11.301c0,0-4.772,0.328-10.154-8.078
			C38.555,217.619,45.867,210.145,64.449,214.396"/>
		<path clip-path="url(#SVGID_2_)" fill="#E83628" d="M36.524,221.654c0,0,3.96,6.43,9.748,8.398c0,0-6.904,9.748-6.702,15.348
			c0,0-7.436-5.193-9.342-10.473C30.229,234.928,31.955,226.32,36.524,221.654"/>
		<path clip-path="url(#SVGID_2_)" fill="#E83628" d="M50.335,232.334c0,0,9.139,3.525,14.114,2.904c0,0-11.068,7.984-14.825,15.865
			c0,0-3.858-1.141-6.499-3.629C43.125,247.475,43.938,238.66,50.335,232.334"/>
		<path clip-path="url(#SVGID_2_)" fill="#E83628" d="M71.863,234.408c0,0-5.584,8.088-7.414,14.932c0,0,10.968,0.416,26.606-6.117
			c0,0-15.741,18.666-38.894,10.992C52.162,254.215,60.693,241.254,71.863,234.408"/>
		<path clip-path="url(#SVGID_2_)" fill="#E83628" d="M47.797,257.115c0,0-2.945,7.363-2.642,13.689c0,0-7.006-1.141-9.037-4.459
			c0,0,1.776-10.568,5.839-13.688C41.957,252.658,44.648,256.082,47.797,257.115"/>
		<path clip-path="url(#SVGID_2_)" fill="#E83628" d="M51.502,258.982c0,0-3.638,9.021-2.352,12.963c0,0,7.988,2.281,12.355,1.035
			c0,0,4.975-9.539,15.027-14.828C76.533,258.152,65.16,264.375,51.502,258.982"/>
		<path clip-path="url(#SVGID_2_)" fill="#E83628" d="M104.562,240.215c0,0-3.148,21.152,0.709,32.041
			c0,0,8.835,1.557,29.958-12.857c0,0,3.045-13.895,3.453-13.998c0.405-0.104-0.408,0.104-0.408,0.104s-9.849,9.125-23.659,11.51
			c0,0-3.048-14.311,2.74-23.486C117.354,233.527,110.146,236.896,104.562,240.215"/>
		<path clip-path="url(#SVGID_2_)" fill="#E83628" d="M152.999,225.699c0,0-5.789,17.834,8.529,18.457
			c14.319,0.623,8.938-19.959,25.794-25.5c0,0-12.998,1.754-19.6,5.797C161.123,228.498,152.999,225.699,152.999,225.699"/>
		<path clip-path="url(#SVGID_2_)" fill="#E83628" d="M197.477,131.234c8.06,3.148,20.883,11.332,17.94,21.984
			c-1.49,5.391-2.91-4.148-20.174-12.029c-17.265-7.881-38.248-22.227-68.646-2.904
			C126.597,138.285,144.876,110.703,197.477,131.234"/>
		<path clip-path="url(#SVGID_2_)" fill="#E83628" d="M334.657,113.539c0,0,11.373,15.482,8.665,29.311
			c0,0-24.37-12.445-30.327-32.629C312.995,110.221,325.721,115.197,334.657,113.539"/>
		<path clip-path="url(#SVGID_2_)" fill="#E83628" d="M377.308,214.396c0,0,13.201,4.873,15.74,11.301c0,0,4.772,0.328,10.155-8.078
			C403.203,217.619,395.891,210.145,377.308,214.396"/>
		<path clip-path="url(#SVGID_2_)" fill="#E83628" d="M391.423,232.334c0,0-9.14,3.525-14.114,2.904c0,0,11.067,7.984,14.825,15.865
			c0,0,3.858-1.141,6.497-3.629C398.631,247.475,397.82,238.66,391.423,232.334"/>
		<path clip-path="url(#SVGID_2_)" fill="#E83628" d="M369.895,234.408c0,0,5.585,8.088,7.413,14.932c0,0-10.968,0.416-26.604-6.117
			c0,0,15.74,18.666,38.891,10.992C389.594,254.215,381.063,241.254,369.895,234.408"/>
		<path clip-path="url(#SVGID_2_)" fill="#E83628" d="M390.254,258.982c0,0,3.64,9.021,2.354,12.963c0,0-7.989,2.281-12.357,1.035
			c0,0-4.976-9.539-15.027-14.828C365.224,258.152,376.598,264.375,390.254,258.982"/>
		<path clip-path="url(#SVGID_2_)" fill="#E83628" d="M337.196,240.215c0,0,3.146,21.152-0.711,32.041
			c0,0-8.834,1.557-29.956-12.857c0,0-3.046-13.895-3.452-13.998c-0.407-0.104,0.406,0.104,0.406,0.104s9.85,9.125,23.659,11.51
			c0,0,3.047-14.311-2.741-23.486C324.401,233.527,331.611,236.896,337.196,240.215"/>
		<path clip-path="url(#SVGID_2_)" fill="#E83628" d="M288.758,225.699c0,0,5.789,17.834-8.529,18.457s-8.938-19.959-25.793-25.5
			c0,0,12.997,1.754,19.597,5.797C280.636,228.498,288.758,225.699,288.758,225.699"/>
		<path clip-path="url(#SVGID_2_)" fill="#E83628" d="M244.279,131.234c-8.06,3.148-20.883,11.332-17.939,21.984
			c1.491,5.391,2.912-4.148,20.174-12.029c17.264-7.881,38.249-22.227,68.647-2.904
			C315.161,138.285,296.882,110.703,244.279,131.234"/>
		<path clip-path="url(#SVGID_2_)" fill="#E83628" d="M362.67,209.211c0,0-20.69-0.771-31.144-5.381c0,0,19.507-1.477,30.412-0.145
			L362.67,209.211z"/>
		<path clip-path="url(#SVGID_2_)" fill="#E83628" d="M78.32,209.211c0,0,20.69-0.771,31.144-5.381c0,0-19.508-1.477-30.411-0.145
			L78.32,209.211z"/>
		<path clip-path="url(#SVGID_2_)" fill="#E83628" d="M218.772,250.797c-0.041-0.012-0.064-0.018-0.064-0.018
			S218.73,250.785,218.772,250.797"/>
		<path clip-path="url(#SVGID_2_)" fill="#E83628" d="M256.683,229.762c0.38,0.406-4.853-8.129-11.802-6.164
			c-6.951,1.967-6.819,10.885-3.542,14.949c3.279,4.068,7.607,10.23,7.869,15.738c0,0,1.88-3.891-4.937-16.918
			C240.022,229.248,247.765,220.238,256.683,229.762"/>
		<path clip-path="url(#SVGID_2_)" fill="#E9A837" d="M201.462,286.293c0,0-6.615-9.334,0-19.48
			c6.616-10.15,5.438-17.877-6.852-21.586c0,0,9.551,7.373,5.676,15.393C196.411,268.641,192.071,277.178,201.462,286.293"/>
	</g>
	<g>
		<defs>
			<path id="SVGID_3_" d="M201.77,292.25c-4.54,1.17-8.938,2.689-12.438,5.977c-3.49,3.279-3.711,7.348-0.139,10.377
				c2.404,2.039,5.269,3.852,8.236,4.857c13.366,4.537,26.884,4.521,40.21-0.127c3.107-1.084,5.93-3.295,8.535-5.414
				c1.938-1.58,2.44-4.088,1.413-6.531c-1.493-3.541-4.56-5.213-7.855-6.547c4.714,5.84,3.965,10.459-2.521,14.275
				c-1.539,0.906-3.221,1.637-4.915,2.205c-6.821,2.281-13.789,2.459-20.807,1.113c-3.695-0.707-6.836-1.406-10.085-4.066
				c5.216-2.961,10.562-3.619,15.957-3.4c5.404,0.223,10.376,0.809,16.179,1.428c-11.894-6.414-23.717-6.588-36.062-3.35
				c-0.981-4.848,4.11-8.764,8.422-11.715C204.523,291.635,203.137,291.9,201.77,292.25"/>
		</defs>
		<clipPath id="SVGID_4_">
			<use xlink:href="#SVGID_3_"  overflow="visible"/>
		</clipPath>
		
			<linearGradient id="SVGID_5_" gradientUnits="userSpaceOnUse" x1="-62.4326" y1="491.9375" x2="-61.4321" y2="491.9375" gradientTransform="matrix(-1.4086 33.8137 33.8137 1.4086 -16504.2988 1704.0059)">
			<stop  offset="0" style="stop-color:#C6CDD1"/>
			<stop  offset="0.2955" style="stop-color:#C6CDD1"/>
			<stop  offset="1" style="stop-color:#E9A837"/>
		</linearGradient>
		<polygon clip-path="url(#SVGID_4_)" fill="url(#SVGID_5_)" points="249.725,291.377 248.507,320.619 184.512,317.953 
			185.729,288.713 		"/>
	</g>
	<g>
		<defs>
			<rect id="SVGID_6_" x="-65.437" y="-61.482" width="572.598" height="572.599"/>
		</defs>
		<clipPath id="SVGID_7_">
			<use xlink:href="#SVGID_6_"  overflow="visible"/>
		</clipPath>
		<path clip-path="url(#SVGID_7_)" fill="#C6CDD1" d="M259.637,345.352c0,8.874-18.629,16.069-41.606,16.069
			c-22.979,0-41.608-7.195-41.608-16.069c0-8.875,18.63-16.066,41.608-16.066C241.008,329.285,259.637,336.477,259.637,345.352"/>
		<path clip-path="url(#SVGID_7_)" fill="#E9A837" d="M218.03,363.007c-24.221,0-43.194-7.754-43.194-17.655
			c0-9.9,18.974-17.654,43.194-17.654c24.22,0,43.192,7.754,43.192,17.654C261.223,355.253,242.25,363.007,218.03,363.007
			 M218.03,330.867c-23.94,0-40.023,7.49-40.023,14.484c0,6.997,16.083,14.485,40.023,14.485c23.939,0,40.022-7.488,40.022-14.485
			C258.053,338.357,241.97,330.867,218.03,330.867"/>
		<path clip-path="url(#SVGID_7_)" fill="#FFFFFF" d="M219.073,345.586c-3.655,0-7.438-0.535-11.282-1.646
			c-12.819-3.703-22.311-16.787-22.076-30.438l0.006-0.375l0.356-0.117c0.036-0.012,0.077-0.029,0.119-0.049
			c0.211-0.094,0.563-0.248,0.86,0.01c11.745,10.068,25.831,10.15,38.059,8.906c3.756-0.385,7.447-1.486,11.212-2.682
			c5.565-1.766,10.31-5.336,14.507-10.914c3.097-4.107,6.037-7.244,8.989-9.588c2.109-1.668,5.236-2.857,8.58-3.262
			c5.365-0.65,9.767,2.078,11.486,7.115c2.084,6.104,0.506,11.475-4.119,14.012c-3.976,2.178-8.271,3.896-12.425,5.559
			c-1.796,0.719-3.652,1.461-5.455,2.23l-0.449,0.191l-1.016-1.949l0.403-0.262c0.86-0.555,1.723-1.107,2.585-1.66
			c1.968-1.26,4.002-2.561,5.968-3.893c3.683-2.494,5.689-5.225,6.315-8.594c0.297-1.602,0.098-2.838-0.575-3.574
			c-0.654-0.717-1.763-1.008-3.291-0.865c-4.457,0.418-8.056,2.986-11.005,7.848c-1.451,2.393-2.452,5.143-3.42,7.807l-0.347,0.951
			C247.203,336.326,234.249,345.586,219.073,345.586"/>
		<path clip-path="url(#SVGID_7_)" fill="#E83628" d="M214.67,290.867c2.64,3.617,6.013,5.229,6.013,5.229s-5.814-5.24-5.814-14.133
			c0-8.891,11.068-17.686,11.317-25.238c0.313-9.387-7.382-14.068-8.034-14.234c0.533,0.139,5.672,6.736,5.264,13.869
			c-0.438,7.674-11.727,14.154-11.837,24.752c-0.038,3.762,1.1,6.738,2.583,9.018"/>
		<path clip-path="url(#SVGID_7_)" fill="#E83628" d="M238.879,343.078c-2.522,8.124-9.717,12.581-19.686,12.657
			c-10.22,0.078-17.782-4.484-20.593-13.022c5.697,6.193,12.449,8.177,19.958,8.095
			C226.088,350.726,232.983,348.881,238.879,343.078"/>
		<path clip-path="url(#SVGID_7_)" fill="#E83628" d="M197.183,303.078c0,0-0.008-0.072-0.023-0.207
			c-0.021-0.17-0.021-0.34-0.023-0.584c0.006-0.232,0.016-0.516,0.061-0.83c0.029-0.316,0.109-0.66,0.191-1.031
			c0.102-0.367,0.213-0.762,0.379-1.158c0.137-0.406,0.36-0.795,0.557-1.211c0.242-0.391,0.463-0.809,0.752-1.186
			c0.285-0.379,0.561-0.771,0.893-1.115c0.313-0.357,0.635-0.705,0.985-1.012c0.336-0.314,0.667-0.627,1.022-0.887
			c0.349-0.262,0.666-0.543,1-0.76c0.332-0.221,0.645-0.428,0.935-0.619c0.573-0.387,1.099-0.633,1.44-0.84
			c0.352-0.197,0.551-0.311,0.551-0.311s-0.182,0.143-0.5,0.387c-0.312,0.254-0.788,0.568-1.295,1.027
			c-0.254,0.23-0.529,0.475-0.82,0.734c-0.293,0.256-0.561,0.572-0.855,0.873c-0.303,0.293-0.572,0.633-0.847,0.979
			c-0.287,0.334-0.539,0.699-0.776,1.07c-0.261,0.359-0.457,0.752-0.662,1.127c-0.211,0.373-0.348,0.771-0.51,1.135
			c-0.115,0.385-0.261,0.742-0.322,1.098c-0.092,0.348-0.131,0.682-0.172,0.986c-0.021,0.307-0.047,0.586-0.031,0.826
			c0.002,0.244,0.025,0.447,0.044,0.613c0.026,0.156,0.049,0.299,0.065,0.34c0.021,0.076,0.031,0.117,0.031,0.117L197.183,303.078z"
			/>
		<path clip-path="url(#SVGID_7_)" fill="#E83628" d="M201.394,308.348c0,0,0.021-0.025,0.062-0.074
			c0.065-0.072,0.17-0.191,0.3-0.316c0.225-0.203,0.559-0.453,0.982-0.721c0.43-0.242,0.953-0.52,1.563-0.76
			c0.61-0.24,1.303-0.482,2.063-0.672c0.38-0.094,0.775-0.188,1.186-0.289c0.411-0.072,0.836-0.148,1.273-0.227
			c0.871-0.166,1.798-0.223,2.75-0.346c0.953-0.051,1.938-0.131,2.937-0.156c0.998-0.002,2.013-0.035,3.022-0.006
			c1.009,0.037,2.018,0.072,3.011,0.107c0.99,0.078,1.963,0.152,2.906,0.227c1.882,0.145,3.626,0.395,5.125,0.549
			c2.98,0.438,4.968,0.73,4.968,0.73s-2-0.16-5-0.4c-1.504-0.057-3.252-0.191-5.129-0.211c-0.938-0.01-1.906-0.023-2.891-0.035
			c-0.981,0.031-1.979,0.059-2.977,0.088c-0.996,0.039-1.986,0.139-2.961,0.203c-0.973,0.088-1.922,0.23-2.841,0.336
			c-0.905,0.182-1.796,0.295-2.606,0.506c-0.406,0.102-0.803,0.197-1.185,0.293c-0.372,0.115-0.731,0.23-1.076,0.338
			c-0.687,0.219-1.287,0.479-1.797,0.721c-0.517,0.24-0.918,0.492-1.242,0.703c-0.303,0.225-0.51,0.4-0.627,0.523
			c-0.035,0.043-0.048,0.063-0.067,0.076c-0.033,0.047-0.052,0.072-0.052,0.072L201.394,308.348z"/>
		<path clip-path="url(#SVGID_7_)" fill="#E9A837" d="M257.116,322.771c2.857-1.848,5.743-3.65,8.563-5.559
			c3.229-2.188,5.786-4.891,6.538-8.936c0.645-3.477-0.884-5.393-4.435-5.061c-5.303,0.496-8.834,3.855-11.407,8.098
			c-1.653,2.723-2.706,5.834-3.812,8.852c-7.531,20.549-26.373,28.533-44.626,23.266c-12.748-3.68-21.924-16.537-21.695-29.92
			c0.16-0.053,0.403-0.199,0.472-0.139c11.257,9.65,24.65,10.438,38.455,9.031c3.828-0.393,7.625-1.531,11.317-2.703
			c6.17-1.959,10.87-5.918,14.771-11.102c2.602-3.453,5.529-6.82,8.895-9.492c2.231-1.766,5.43-2.803,8.315-3.15
			c5.32-0.643,9.363,2.189,10.921,6.76c1.855,5.432,0.768,10.832-3.872,13.377c-5.661,3.105-11.864,5.221-17.833,7.768
			C257.493,323.5,257.305,323.137,257.116,322.771"/>
		<path clip-path="url(#SVGID_7_)" fill="#C6CDD1" d="M82.729,136.213c0,0-5.666,32,12.998,50.877c0,0-11.373-6.637-20.039-6.637
			c0,0,0.588-17.689-1.896-28.479c-2.482-10.789,2.539-22.387,6.229-25.439C80.021,126.535,78.684,131.67,82.729,136.213"/>
		<path clip-path="url(#SVGID_7_)" fill="#C6CDD1" d="M107.642,196.492c0,0-38.724-3.595-58.491,8.57
			c0,0,10.611-10.408,19.496-15.207c4.481-2.42,5.957-6.049,5.957-6.049S100.364,190.825,107.642,196.492"/>
		<path clip-path="url(#SVGID_7_)" fill="#C6CDD1" d="M124.566,230.467c-0.792,0.363-2.743,8.193-2.642,12.443
			c0,0,17.365,1.871,24.678-17.211C146.603,225.699,137.968,224.346,124.566,230.467"/>
		<path clip-path="url(#SVGID_7_)" fill="#C6CDD1" d="M359.028,136.213c0,0,5.666,32-12.999,50.877c0,0,11.374-6.637,20.04-6.637
			c0,0-0.587-17.689,1.896-28.479c2.484-10.789-2.539-22.387-6.229-25.439C361.736,126.535,363.075,131.67,359.028,136.213"/>
		<path clip-path="url(#SVGID_7_)" fill="#C6CDD1" d="M334.116,196.492c0,0,38.725-3.595,58.491,8.57
			c0,0-10.609-10.408-19.498-15.207c-4.479-2.42-5.957-6.049-5.957-6.049S341.393,190.825,334.116,196.492"/>
		<path clip-path="url(#SVGID_7_)" fill="#C6CDD1" d="M317.19,230.467c0.792,0.363,2.742,8.193,2.643,12.443
			c0,0-17.366,1.871-24.677-17.211C295.156,225.699,303.789,224.346,317.19,230.467"/>
		<path clip-path="url(#SVGID_7_)" fill="#C6CDD1" d="M209.19,218.354c0,0-17.331-0.652-20,10.359s12.216,12.436,16.887,15.105
			c4.672,2.67,7.006,6.895,2.001,11.787c0,0,5.38-3.246,4.653-8.275c-0.811-5.611-6.311-7.424-9.77-8.27
			C194.437,236.979,186.615,222.432,209.19,218.354"/>
		<path clip-path="url(#SVGID_7_)" fill="#C6CDD1" d="M226.666,285.236c0,0-7.835-5.738-5.101-10.955
			c2.736-5.215,16.879-7.443,16.618-17.379c-0.26-9.939-7.56-16.496-8.079-23.375c-1.222-16.225,10.76-15.193,10.76-15.193
			s-10.698,0.58-7.813,16.232c1.886,10.244,11.722,13.086,11.202,22.729c-0.523,9.641-14.396,11.992-19.155,18.824
			C222.49,279.859,226.666,285.236,226.666,285.236"/>
		<path clip-path="url(#SVGID_7_)" fill="#C6CDD1" d="M239.165,163.674c0,0,12.547-16.205,38.261-11.271
			c25.714,4.932,44.469,21.572,60.979,5.678c0,0-16.155,5.258-26.063-0.563S262.192,128.098,239.165,163.674"/>
		<path clip-path="url(#SVGID_7_)" fill="#C6CDD1" d="M201.462,163.674c0,0-12.546-16.205-38.26-11.271
			c-25.714,4.932-44.469,21.572-60.98,5.678c0,0,16.156,5.258,26.063-0.563S178.435,128.098,201.462,163.674"/>
		<path clip-path="url(#SVGID_7_)" fill="#C6CDD1" d="M147.961,110.078c0,0,20.271-1.354,50.211-9.104
			c29.941-7.748,49.314-0.406,62.7,4.551c13.385,4.961,34.31,7.426,34.31,7.426s-30.403-8.699-43.469-15.662
			c-10.465-5.574-33.11-8.641-53.541-1.949C177.742,102.031,158.905,108.338,147.961,110.078"/>
		<path clip-path="url(#SVGID_7_)" fill="#C6CDD1" d="M102.222,219.559c0,0-14.302,6.73-16.765,9.033
			c-5.282,4.936-6.856,13.82,4.145,10.201C89.602,238.793,79.873,232.791,102.222,219.559"/>
		<path clip-path="url(#SVGID_7_)" fill="#C6CDD1" d="M339.198,219.559c0,0,14.301,6.73,16.766,9.033
			c5.283,4.936,6.855,13.82-4.146,10.201C351.818,238.793,361.546,232.791,339.198,219.559"/>
		<path clip-path="url(#SVGID_7_)" fill="#E9A837" d="M220.862,12.219c-117.414,0-212.599,95.184-212.599,212.596
			c0,117.416,95.185,212.601,212.599,212.601c117.415,0,212.6-95.185,212.6-212.601C433.462,107.402,338.277,12.219,220.862,12.219
			 M220.862,371.679c-81.11,0-146.864-65.753-146.864-146.864c0-81.109,65.754-146.863,146.864-146.863
			c81.111,0,146.864,65.754,146.864,146.863C367.727,305.926,301.974,371.679,220.862,371.679"/>
		<path clip-path="url(#SVGID_7_)" fill="#1D1A19" d="M220.862,17.48c-114.508,0-207.333,92.828-207.333,207.334
			c0,114.508,92.825,207.337,207.333,207.337c114.509,0,207.337-92.829,207.337-207.337
			C428.199,110.309,335.371,17.48,220.862,17.48 M220.862,369.071c-79.67,0-144.255-64.585-144.255-144.257
			c0-79.67,64.585-144.254,144.255-144.254c79.671,0,144.257,64.584,144.257,144.254
			C365.119,304.486,300.533,369.071,220.862,369.071"/>
		<path clip-path="url(#SVGID_7_)" fill="#E83628" d="M220.862,426.097c-110.986,0-201.28-90.296-201.28-201.282
			s90.294-201.279,201.28-201.279c110.987,0,201.282,90.293,201.282,201.279S331.85,426.097,220.862,426.097 M220.862,25.629
			c-109.832,0-199.188,89.354-199.188,199.186c0,109.834,89.355,199.19,199.188,199.19s199.188-89.356,199.188-199.19
			C420.051,114.982,330.694,25.629,220.862,25.629"/>
		<path clip-path="url(#SVGID_7_)" fill="#E83628" d="M220.862,427.683c-111.858,0-202.866-91.007-202.866-202.866
			c0-111.861,91.008-202.865,202.866-202.865c111.861,0,202.865,91.004,202.865,202.865
			C423.728,336.676,332.724,427.683,220.862,427.683 M220.862,27.213c-108.959,0-197.604,88.645-197.604,197.604
			c0,108.957,88.645,197.604,197.604,197.604s197.604-88.647,197.604-197.604C418.466,115.857,329.821,27.213,220.862,27.213"/>
		<path clip-path="url(#SVGID_7_)" fill="#E9A837" d="M220.862,370.646c-80.41,0-145.829-65.421-145.829-145.831
			S140.452,78.986,220.862,78.986c80.411,0,145.83,65.418,145.83,145.828S301.273,370.646,220.862,370.646 M220.862,82.135
			c-78.674,0-142.683,64.006-142.683,142.68c0,78.676,64.009,142.685,142.683,142.685c78.676,0,142.683-64.009,142.683-142.685
			C363.545,146.141,299.538,82.135,220.862,82.135"/>
		<path clip-path="url(#SVGID_7_)" fill="#C6CDD1" d="M392.436,198.396c0,2.264-1.836,4.102-4.102,4.102
			c-2.263,0-4.099-1.838-4.099-4.102c0-2.266,1.836-4.1,4.099-4.1C390.6,194.296,392.436,196.13,392.436,198.396"/>
		<path clip-path="url(#SVGID_7_)" fill="#C6CDD1" d="M386.958,177.213c0,1.51-1.224,2.734-2.731,2.734
			c-1.51,0-2.734-1.225-2.734-2.734c0-1.508,1.225-2.73,2.734-2.73C385.734,174.482,386.958,175.705,386.958,177.213"/>
		<path clip-path="url(#SVGID_7_)" fill="#C6CDD1" d="M380.458,158.08c0,1.51-1.224,2.734-2.732,2.734
			c-1.51,0-2.735-1.225-2.735-2.734s1.226-2.732,2.735-2.732C379.234,155.348,380.458,156.57,380.458,158.08"/>
		<path clip-path="url(#SVGID_7_)" fill="#C6CDD1" d="M392.436,248.279c0-2.264-1.836-4.1-4.102-4.1c-2.263,0-4.099,1.836-4.099,4.1
			c0,2.268,1.836,4.102,4.099,4.102C390.6,252.381,392.436,250.547,392.436,248.279"/>
		<path clip-path="url(#SVGID_7_)" fill="#C6CDD1" d="M386.958,269.463c0-1.51-1.224-2.732-2.731-2.732
			c-1.51,0-2.734,1.223-2.734,2.732c0,1.512,1.225,2.734,2.734,2.734C385.734,272.197,386.958,270.975,386.958,269.463"/>
		<path clip-path="url(#SVGID_7_)" fill="#C6CDD1" d="M380.458,288.596c0-1.51-1.224-2.73-2.732-2.73
			c-1.51,0-2.735,1.221-2.735,2.73c0,1.512,1.226,2.734,2.735,2.734C379.234,291.33,380.458,290.107,380.458,288.596"/>
		<path clip-path="url(#SVGID_7_)" fill="#C6CDD1" d="M51.16,198.396c0,2.264,1.835,4.102,4.1,4.102c2.264,0,4.1-1.838,4.1-4.102
			c0-2.266-1.836-4.1-4.1-4.1C52.995,194.296,51.16,196.13,51.16,198.396"/>
		<path clip-path="url(#SVGID_7_)" fill="#C6CDD1" d="M56.636,177.213c0,1.51,1.224,2.734,2.733,2.734s2.732-1.225,2.732-2.734
			c0-1.508-1.223-2.73-2.732-2.73S56.636,175.705,56.636,177.213"/>
		<path clip-path="url(#SVGID_7_)" fill="#C6CDD1" d="M63.137,158.08c0,1.51,1.225,2.734,2.732,2.734
			c1.511,0,2.733-1.225,2.733-2.734s-1.223-2.732-2.733-2.732C64.361,155.348,63.137,156.57,63.137,158.08"/>
		<path clip-path="url(#SVGID_7_)" fill="#C6CDD1" d="M51.16,248.279c0-2.264,1.835-4.1,4.1-4.1c2.264,0,4.1,1.836,4.1,4.1
			c0,2.268-1.836,4.102-4.1,4.102C52.995,252.381,51.16,250.547,51.16,248.279"/>
		<path clip-path="url(#SVGID_7_)" fill="#C6CDD1" d="M56.636,269.463c0-1.51,1.224-2.732,2.733-2.732s2.732,1.223,2.732,2.732
			c0,1.512-1.223,2.734-2.732,2.734S56.636,270.975,56.636,269.463"/>
		<path clip-path="url(#SVGID_7_)" fill="#C6CDD1" d="M63.137,288.596c0-1.51,1.225-2.73,2.732-2.73c1.511,0,2.733,1.221,2.733,2.73
			c0,1.512-1.223,2.734-2.733,2.734C64.361,291.33,63.137,290.107,63.137,288.596"/>
		<path clip-path="url(#SVGID_7_)" fill="#E9A837" d="M388.837,211.584c0,0-10.338,6.055-5.062,18.086
			c5.274,12.035,10.061,2.561,6.946-2.975C387.606,221.16,386.962,215.383,388.837,211.584"/>
		<path clip-path="url(#SVGID_7_)" fill="#E9A837" d="M391.951,234.947c0,0,10.337-6.053,5.063-18.084
			c-5.276-12.038-10.062-2.563-6.946,2.975C393.182,225.373,393.826,231.15,391.951,234.947"/>
		<path clip-path="url(#SVGID_7_)" fill="#E9A837" d="M52.426,211.584c0,0-10.338,6.055-5.062,18.086
			c5.274,12.035,10.062,2.561,6.946-2.975S50.551,215.383,52.426,211.584"/>
		<path clip-path="url(#SVGID_7_)" fill="#E9A837" d="M55.541,234.947c0,0,10.338-6.053,5.062-18.084
			c-5.274-12.038-10.06-2.563-6.946,2.975C56.771,225.373,57.416,231.15,55.541,234.947"/>
		<path clip-path="url(#SVGID_7_)" fill="#FFFFFF" d="M108.028,80.084l11.421-7.666c2.835-1.9,5.466-2.613,7.896-2.133
			c1.881,0.373,3.381,1.391,4.498,3.057l0.048,0.072c0.472,0.703,0.802,1.383,0.989,2.041s0.281,1.301,0.281,1.93
			c0,0.631-0.08,1.238-0.246,1.826c-0.164,0.588-0.39,1.146-0.674,1.678c1.787-0.416,3.399-0.436,4.84-0.059
			c1.44,0.379,2.711,1.391,3.814,3.031l0.047,0.072c0.756,1.125,1.201,2.256,1.335,3.393c0.134,1.135-0.015,2.256-0.446,3.363
			c-0.43,1.104-1.119,2.18-2.064,3.225c-0.948,1.043-2.112,2.029-3.495,2.959l-11.702,7.854L108.028,80.084z M124.995,83.148
			c1.196-0.805,2.01-1.646,2.438-2.529c0.428-0.885,0.335-1.785-0.28-2.699l-0.047-0.07c-0.551-0.822-1.277-1.244-2.18-1.27
			c-0.901-0.023-1.928,0.35-3.076,1.121l-5.352,3.592l3.498,5.209L124.995,83.148z M133.102,92.105
			c1.196-0.803,1.989-1.648,2.379-2.539c0.39-0.893,0.276-1.795-0.337-2.711l-0.048-0.07c-0.552-0.822-1.306-1.26-2.263-1.316
			c-0.955-0.055-2.138,0.391-3.547,1.332l-6.266,4.207l3.639,5.422L133.102,92.105z"/>
		<path clip-path="url(#SVGID_7_)" fill="#FFFFFF" d="M152.827,54.881l5.637-2.115l22.407,23.516l-6.391,2.4l-4.879-5.279
			l-11.751,4.406l-0.201,7.186l-6.233,2.34L152.827,54.881z M165.393,68.822l-7.071-7.627l-0.312,10.396L165.393,68.822z"/>
		<path clip-path="url(#SVGID_7_)" fill="#FFFFFF" d="M185.668,45.137l11.492-1.365c2.302-0.271,4.456-0.15,6.47,0.363
			c2.01,0.518,3.789,1.354,5.336,2.506c1.545,1.154,2.803,2.578,3.771,4.27c0.969,1.693,1.578,3.578,1.824,5.654l0.009,0.084
			c0.248,2.078,0.099,4.059-0.446,5.945s-1.433,3.572-2.664,5.057c-1.234,1.482-2.768,2.719-4.6,3.705
			c-1.834,0.986-3.9,1.615-6.202,1.889l-11.494,1.363L185.668,45.137z M199.964,67.393c1.318-0.156,2.502-0.512,3.545-1.063
			c1.045-0.551,1.906-1.266,2.586-2.143c0.678-0.877,1.172-1.875,1.48-2.994s0.385-2.336,0.227-3.656l-0.008-0.084
			c-0.154-1.291-0.514-2.457-1.078-3.502c-0.565-1.041-1.281-1.91-2.146-2.605c-0.865-0.693-1.871-1.191-3.017-1.498
			c-1.147-0.307-2.381-0.381-3.698-0.223l-5.01,0.594l2.108,17.768L199.964,67.393z"/>
		<path clip-path="url(#SVGID_7_)" fill="#FFFFFF" d="M239.685,43.051l5.978,0.717l9.082,31.188l-6.777-0.811l-1.904-6.932
			l-12.462-1.488l-3.483,6.287l-6.61-0.791L239.685,43.051z M244.431,61.211l-2.772-10.023l-5.058,9.088L244.431,61.211z"/>
		<path clip-path="url(#SVGID_7_)" fill="#FFFFFF" d="M273.104,49.51l12.738,4.674c3.528,1.297,5.89,3.232,7.082,5.809
			c1.007,2.176,1.024,4.592,0.051,7.244l-0.029,0.078c-0.827,2.258-2.054,3.893-3.677,4.906c-1.621,1.018-3.443,1.531-5.465,1.541
			l3.154,12.449l-7.164-2.631l-2.697-11.105l-0.08-0.029l-4.735-1.738l-3.273,8.914l-6.129-2.25L273.104,49.51z M280.477,67.572
			c1.513,0.555,2.804,0.623,3.877,0.203c1.072-0.42,1.827-1.227,2.266-2.42l0.03-0.08c0.485-1.326,0.427-2.477-0.179-3.451
			c-0.605-0.977-1.665-1.74-3.178-2.295l-6.09-2.236l-2.936,8L280.477,67.572z"/>
		<path clip-path="url(#SVGID_7_)" fill="#FFFFFF" d="M306.576,98.662c-1.901-1.279-3.423-2.789-4.568-4.529
			s-1.916-3.57-2.311-5.488c-0.396-1.918-0.401-3.863-0.014-5.832c0.39-1.971,1.175-3.836,2.358-5.596l0.046-0.068
			c1.184-1.76,2.621-3.188,4.311-4.281c1.688-1.094,3.508-1.832,5.447-2.211c1.942-0.379,3.941-0.365,5.997,0.047
			c2.057,0.414,4.035,1.258,5.936,2.535c1.897,1.277,3.422,2.787,4.565,4.529c1.147,1.74,1.916,3.568,2.313,5.488
			c0.396,1.918,0.398,3.863,0.012,5.832c-0.388,1.971-1.173,3.834-2.357,5.594l-0.048,0.07c-1.181,1.76-2.621,3.186-4.308,4.279
			c-1.692,1.096-3.507,1.832-5.45,2.213c-1.94,0.381-3.939,0.363-5.996-0.049C310.453,100.785,308.475,99.938,306.576,98.662
			 M310.005,93.713c1.08,0.725,2.21,1.197,3.392,1.414c1.186,0.217,2.334,0.188,3.453-0.08c1.118-0.271,2.17-0.746,3.157-1.428
			c0.988-0.682,1.835-1.551,2.544-2.605l0.048-0.07c0.71-1.057,1.198-2.174,1.467-3.357c0.268-1.184,0.304-2.352,0.107-3.504
			c-0.195-1.154-0.611-2.242-1.251-3.268c-0.637-1.025-1.497-1.902-2.575-2.627c-1.102-0.742-2.239-1.217-3.411-1.426
			c-1.171-0.209-2.313-0.18-3.433,0.092c-1.12,0.27-2.171,0.746-3.158,1.428s-1.835,1.551-2.545,2.607l-0.047,0.068
			c-0.709,1.057-1.199,2.176-1.465,3.357c-0.27,1.182-0.305,2.35-0.11,3.504c0.196,1.154,0.607,2.238,1.234,3.256
			S308.903,92.971,310.005,93.713 M331.023,66.871l3.261,5.105l-7.343,1.193l-4.081-2.746L331.023,66.871z"/>
		<path clip-path="url(#SVGID_7_)" fill="#FFFFFF" d="M104.065,329.682l3.992,4.506l-13.927,29.347l-4.527-5.105l3.179-6.447
			l-8.326-9.39l-6.78,2.383l-4.416-4.979L104.065,329.682z M95.551,346.41l4.585-9.336l-9.816,3.438L95.551,346.41z"/>
		<path clip-path="url(#SVGID_7_)" fill="#FFFFFF" d="M122.403,348.701l11.047,7.876c3.061,2.182,4.826,4.676,5.295,7.471
			c0.395,2.369-0.227,4.701-1.867,7.002l-0.051,0.07c-1.395,1.955-3.009,3.209-4.841,3.762c-1.832,0.547-3.726,0.559-5.677,0.037
			l-0.252,12.838l-6.213-4.43l0.336-11.426l-0.069-0.051l-4.106-2.928l-5.516,7.732l-5.316-3.789L122.403,348.701z M124.735,368.069
			c1.313,0.936,2.541,1.342,3.686,1.221c1.145-0.119,2.088-0.699,2.824-1.734l0.051-0.07c0.819-1.148,1.066-2.273,0.741-3.377
			c-0.327-1.1-1.146-2.117-2.458-3.053l-5.281-3.764l-4.947,6.936L124.735,368.069z"/>
		<polygon clip-path="url(#SVGID_7_)" fill="#FFFFFF" points="154.673,375.644 146.392,372.042 148.792,366.521 171.342,376.327 
			168.942,381.847 160.66,378.247 151.228,399.942 145.238,397.339 		"/>
		<path clip-path="url(#SVGID_7_)" fill="#FFFFFF" d="M227.516,414.255c-2.179,0.041-4.204-0.316-6.084-1.072
			c-1.883-0.752-3.515-1.805-4.895-3.15c-1.384-1.342-2.476-2.941-3.274-4.791s-1.219-3.834-1.26-5.955l-0.002-0.086
			c-0.04-2.119,0.305-4.111,1.031-5.975c0.729-1.867,1.756-3.514,3.085-4.938c1.331-1.426,2.935-2.557,4.813-3.398
			c1.877-0.846,3.962-1.285,6.249-1.33c1.386-0.027,2.651,0.063,3.802,0.266c1.147,0.205,2.192,0.496,3.134,0.871
			c0.939,0.381,1.81,0.842,2.613,1.393c0.801,0.551,1.549,1.158,2.24,1.822l-4.062,4.871c-1.181-1.023-2.375-1.82-3.587-2.391
			c-1.214-0.572-2.569-0.842-4.066-0.813c-1.245,0.025-2.39,0.287-3.44,0.787c-1.052,0.5-1.949,1.182-2.695,2.045
			c-0.747,0.865-1.324,1.855-1.726,2.98c-0.402,1.127-0.59,2.322-0.565,3.594l0.002,0.084c0.022,1.271,0.257,2.471,0.705,3.59
			c0.442,1.123,1.049,2.104,1.815,2.938c0.766,0.83,1.683,1.486,2.751,1.959c1.068,0.475,2.24,0.699,3.513,0.676
			c1.694-0.033,3.124-0.373,4.285-1.016c1.16-0.645,2.308-1.516,3.446-2.611l4.235,4.117c-0.748,0.836-1.524,1.584-2.332,2.25
			c-0.806,0.666-1.694,1.24-2.66,1.725c-0.966,0.486-2.024,0.861-3.178,1.123C230.254,414.079,228.956,414.229,227.516,414.255"/>
		<path clip-path="url(#SVGID_7_)" fill="#FFFFFF" d="M257.155,379.845l5.832-1.496l19.744,25.795l-6.612,1.695l-4.283-5.773
			l-12.155,3.117l-0.976,7.121l-6.448,1.652L257.155,379.845z M268.146,395.06l-6.209-8.344l-1.43,10.303L268.146,395.06z"/>
		<polygon clip-path="url(#SVGID_7_)" fill="#FFFFFF" points="282.446,372.083 302.581,361.819 305.257,367.069 290.94,374.368 
			293.849,380.071 306.465,373.642 309.142,378.892 296.525,385.321 301.745,395.56 295.926,398.522 		"/>
		<polygon clip-path="url(#SVGID_7_)" fill="#FFFFFF" points="309.715,356.987 327.382,342.895 331.056,347.504 318.493,357.522 
			322.486,362.526 333.557,353.698 337.231,358.306 326.16,367.136 333.324,376.118 328.221,380.188 		"/>
		<path clip-path="url(#SVGID_7_)" fill="#FFFFFF" d="M333.423,336.76l14.314-17.154l4.461,3.717l-10.187,12.209l4.622,3.859
			l8.964-10.744l4.46,3.723l-8.964,10.74l4.784,3.996l10.322-12.373l4.46,3.723l-14.45,17.317L333.423,336.76z M333.829,320.918
			l5.414-2.715l0.429,7.426l-3.15,3.775L333.829,320.918z"/>
	</g>
</g>
</svg>
