<?xml version="1.0" encoding="utf-8"?>
<!-- Generator: Adobe Illustrator 16.0.0, SVG Export Plug-In . SVG Version: 6.00 Build 0)  -->
<!DOCTYPE svg PUBLIC "-//W3C//DTD SVG 1.1//EN" "http://www.w3.org/Graphics/SVG/1.1/DTD/svg11.dtd">
<svg version="1.1" id="Layer_1" xmlns="http://www.w3.org/2000/svg" xmlns:xlink="http://www.w3.org/1999/xlink" x="0px" y="0px"
	 width="451px" height="458px" viewBox="0 0 451 458" enable-background="new 0 0 451 458" xml:space="preserve">
<g>
	<defs>
		<rect id="SVGID_8_" x="-33.598" y="-119.301" width="518.043" height="726.606"/>
	</defs>
	<clipPath id="SVGID_2_">
		<use xlink:href="#SVGID_8_"  overflow="visible"/>
	</clipPath>
	<path clip-path="url(#SVGID_2_)" fill="#FFFFFF" d="M37.922,243.538c0-103.063,84.042-186.612,187.712-186.612
		c103.669,0,187.711,83.549,187.711,186.612s-84.042,186.611-187.711,186.611C121.964,430.149,37.922,346.602,37.922,243.538"/>
	<path clip-path="url(#SVGID_2_)" fill="#19181C" d="M60.961,137.212c-19.707,30.815-30.123,66.214-30.123,102.771
		c0,3.723,0.11,7.494,0.33,11.208c2.388,40.368,18.223,79.853,44.579,111.182c54.69,65.009,151.025,88.352,229.07,55.507
		c38.364-16.146,71.001-45.611,91.894-82.955c15.443-27.603,23.608-59.39,23.608-91.92c0-9.244-0.67-18.571-1.985-27.717
		c-5.805-40.38-25.318-78.64-54.937-107.735c-30.181-29.653-70.792-49.507-114.348-55.907
		c-69.585-10.224-140.514,19.862-182.125,76.823l-0.024-0.014l-0.416,0.606c-0.268,0.373-0.551,0.734-0.818,1.109
		c0.02,0,0.042,0.006,0.061,0.007l-1.379,2.022c-0.027,0.016-0.066,0.024-0.09,0.041c0.005,0.01,0.027,0.027,0.035,0.038
		l-1.043,1.53c-0.018-0.02-0.045-0.039-0.063-0.059c-0.605,0.904-1.175,1.827-1.766,2.74l-0.483,0.711L60.961,137.212z
		 M176.354,62.381c40.17-12.482,83.185-10.854,121.115,4.587c38.065,15.498,71.302,46.664,91.191,85.505
		c13.44,26.243,20.543,56.032,20.543,86.152c0,11.662-1.065,23.37-3.167,34.794c-7.811,42.494-30.456,81.6-63.766,110.119
		c-31.427,26.912-71.865,42.887-113.865,44.984c-41.802,2.089-83.093-11.151-116.267-37.278
		c-32.559-25.646-55.825-62.911-65.51-104.925c-3.109-13.484-4.686-27.414-4.686-41.412c0-36.698,11.043-73.695,31.142-104.726
		l4.009-5.922C101.346,100.256,136.484,74.773,176.354,62.381"/>
	<path clip-path="url(#SVGID_2_)" fill="#F7A800" d="M70.957,341.985c34.24,45.051,88.598,70.988,144.917,71.185
		c84.097-0.297,162.587-59.08,184.755-140.468c11.043-40.547,6.942-84.646-10.635-122.726
		c-17.002-36.828-46.804-66.852-82.86-85.188c-37.602-19.126-81.766-24.004-122.813-14.735
		c-40.727,9.194-78.115,32.016-105.514,63.442c-27.19,31.188-43.041,71.221-44.664,112.541
		C32.508,267.618,45.814,308.903,70.957,341.985 M160.688,62.374c40.492-13.396,85.342-10.938,124.578,5.436
		c37.82,15.781,69.26,44.979,88.65,80.978c20.181,37.45,25.777,81.595,16.655,123.043c-8.767,39.813-31.904,76.116-64.454,100.664
		c-28.961,21.838-65.185,32.341-101.224,32.468c-42.181-0.148-83.278-15.319-115.527-42.47
		c-31.389-26.429-52.827-63.56-60.504-103.809C33.137,176.248,80.133,89.024,160.688,62.374"/>
	<path clip-path="url(#SVGID_2_)" fill="#19181C" d="M72.731,187.8c0,0.303-0.011,0.605-0.009,0.908
		c0.007-0.003,0.018-0.009,0.024-0.014l0.028,1.908c0,0.002,0,0.002-0.002,0.002c0.002,0,0.002,0,0.002,0.002l0.023,1.398
		c-0.004,0-0.01,0-0.013,0c0.003,0.115,0.015,0.232,0.018,0.348l0.014,0.76l0.027-0.008c1.218,28.393,10.581,55.48,27.182,78.47
		c1.651,2.284,3.393,4.549,5.173,6.732c19.365,23.728,46.595,40.95,76.668,48.498c62.398,15.665,131.898-12.719,165.25-67.487
		c16.397-26.926,23.371-59.482,19.643-91.674c-2.758-23.799-11.842-46.936-26.263-66.907c-4.097-5.673-8.644-11.104-13.508-16.137
		c-21.47-22.215-50.413-37.055-81.5-41.788c-31.679-4.824-65.413,0.993-94.993,16.379c-47.34,24.617-77.574,74.674-77.76,128.2
		l-0.012,0.003L72.731,187.8z M187.018,47.126c30.24-7.361,64.467-2.964,93.901,12.066c19.886,10.15,37.457,25.292,50.812,43.785
		c5.171,7.16,9.705,14.821,13.484,22.767c14.042,29.552,17.479,63.604,9.672,95.883c-7.363,30.456-25.105,58.195-49.965,78.104
		c-24.737,19.816-55.96,29.996-87.909,28.664c-31.365-1.311-62.172-13.876-86.748-35.375c-7.884-6.899-15.03-14.756-21.233-23.35
		c-16.436-22.756-26.098-50.689-27.367-78.938h0.005l-0.118-4.445h-0.002c-0.216-31.677,10.062-62.955,29.075-88.277
		C129.753,72.538,156.882,54.466,187.018,47.126"/>
	<path clip-path="url(#SVGID_2_)" fill-rule="evenodd" clip-rule="evenodd" fill="#F7A800" d="M186.862,188.936h-5.562
		c-0.156,0-0.234,0-0.234,0.079c0,0.038,0.039,0.078,0.156,0.157c0.597,0.237,0.677,0.954,0.677,1.548v6.078
		c0,1.984-0.28,2.816-0.755,3.096c-0.238,0.158-0.475,0.158-0.475,0.275c0,0.041,0.038,0.083,0.154,0.083
		c0.16,0,0.759-0.042,1.869-0.042c0.476,0,1.707,0.042,1.865,0.042c0.16,0,0.199-0.042,0.199-0.083c0-0.117-0.078-0.117-0.438-0.237
		c-0.715-0.198-0.913-1.149-0.913-2.856v-2.186c0.677,0,1.351,0.039,2.025,0.039c0.358,0,0.874,0,1.43-0.039
		c2.224-0.16,5.322-0.795,5.322-3.059C192.185,190.244,190.437,189.015,186.862,188.936 M186.862,194.412
		c-0.675,0.081-1.312,0.081-1.829,0.081c-0.553,0-1.071-0.039-1.626-0.121v-5.003h1.786c0.598,0,1.113,0,1.669,0.04h0.198
		c1.748,0.12,3.256,0.598,3.256,2.422C190.316,193.698,188.529,194.257,186.862,194.412 M196.271,188.734
		c0.358,0,0.678,0.201,1.072,0.397l0.119,0.04c0.358,0.197,0.757,0.357,1.191,0.357c1.153,0,1.71-0.755,1.906-1.825h-0.517
		c-0.118,0.436-0.478,0.871-0.95,0.871c-0.357,0-0.717-0.198-1.152-0.396c-0.16-0.08-0.317-0.159-0.479-0.239
		c-0.274-0.08-0.554-0.158-0.833-0.158c-1.113,0-1.588,0.793-1.827,1.747h0.518C195.44,189.093,195.798,188.734,196.271,188.734
		 M202.269,199.974c-0.479-0.161-0.596-1.311-0.596-2.424v-3.293c0-2.027-1.071-3.418-4.21-3.418h-0.077
		c-1.114,0-2.543,0.24-3.932,0.835l0.476,1.669c0.041,0.039,0.041,0.039,0.079,0.039c0.04,0,0.08,0,0.08-0.08
		c0.159-1.349,2.145-2.027,3.374-2.027c2.224,0,2.779,1.234,2.779,3.299h-1.309c-0.436,0-0.953,0-1.471,0.079
		c-2.022,0.196-4.528,0.873-4.528,3.017c0,1.905,2.066,2.779,3.735,2.779c0.279,0,0.519,0,0.793-0.039
		c1.231-0.157,2.306-0.714,2.901-1.986h0.036c0.081,0.517,0.32,1.232,0.32,1.669c0,0.041,0.079,0.118,0.198,0.118h1.35
		c0.079,0,0.158-0.041,0.158-0.118C202.427,200.052,202.348,200.014,202.269,199.974 M200.242,195.763
		c0,2.105-0.355,4.131-2.779,4.251h-0.197c-1.43,0-2.62-0.797-2.62-2.345c0-1.704,1.352-2.344,2.817-2.541
		c0.479-0.078,1.035-0.119,1.508-0.119h1.271V195.763z M208.86,190.839c-2.66,0-5.2,1.906-5.2,4.806c0,2.901,2.54,4.804,5.2,4.804
		c2.619,0,5.163-1.902,5.163-4.804C214.023,192.745,211.479,190.839,208.86,190.839 M208.86,200.014
		c-2.623,0-3.536-1.987-3.496-4.369c-0.04-2.382,0.873-4.37,3.496-4.37c2.58,0,3.493,1.988,3.493,4.37
		S211.44,200.014,208.86,200.014 M232.924,199.932c-1.112-0.198-1.906-0.755-3.059-1.666c0.675-0.837,1.471-2.582,1.35-3.692h-2.699
		c-0.081,0-0.158,0-0.158,0.079c0,0.038,0.039,0.077,0.118,0.077c0.834,0.16,1.39,0.717,1.39,1.75c0,0.476-0.119,0.99-0.396,1.389
		c-1.352-0.994-2.624-2.146-3.775-3.414l-0.157-0.162l0.157-0.079c1.232-0.515,2.542-1.268,2.542-2.776
		c0-1.352-1.031-2.027-2.46-2.027h-0.082c-1.429,0.04-2.774,1.193-2.774,2.783c0,0.871,0.474,1.745,1.068,2.381
		c-1.232,0.596-2.739,1.469-2.739,3.018c0,2.143,2.263,2.978,4.128,2.939h0.317c1.151-0.082,2.382-0.557,3.295-1.272
		c0.279,0.159,1.114,0.911,1.392,0.952h2.543c0.078,0,0.198,0,0.198-0.118C233.122,200.014,233.082,199.974,232.924,199.932
		 M225.459,189.847h0.235c0.875,0.082,1.353,0.834,1.353,1.745c0,0.917-0.557,1.79-1.353,2.224
		c-0.118,0.081-0.278,0.122-0.394,0.159c-0.677-0.673-1.313-1.628-1.313-2.619C223.988,190.484,224.543,189.847,225.459,189.847
		 M225.934,200.092h-0.239c-1.469-0.16-2.938-1.429-2.938-3.017c0-1.033,0.599-1.707,1.47-2.227c0.479,0.52,0.994,1.033,1.469,1.512
		c0.954,0.913,1.949,1.784,2.942,2.619C227.919,199.655,226.927,200.092,225.934,200.092 M250.512,197.51
		c-0.076,0-0.118,0.159-0.196,0.318c-0.596,1.192-2.104,2.264-4.408,2.264c-3.296,0-4.964-2.582-4.964-5.599
		c0-3.138,1.785-5.4,4.964-5.4c1.787,0,3.494,0.594,4.209,2.621c0,0.079,0.08,0.16,0.119,0.16c0.08,0,0.158-0.282,0.316-0.678
		l0.319-0.992c-1.351-1.032-3.018-1.549-4.926-1.549c-3.651,0-6.907,2.144-6.907,6.074c0,3.816,3.535,5.801,6.948,5.801
		c1.748,0,3.534-0.479,5.003-1.51l-0.277-1.073C250.595,197.63,250.552,197.51,250.512,197.51 M253.93,189.807
		c0.396,0,0.833-0.317,0.833-0.871c0-0.519-0.437-0.836-0.833-0.836c-0.398,0-0.835,0.317-0.835,0.836
		C253.095,189.489,253.531,189.807,253.93,189.807 M255.318,200.014c-0.437-0.12-0.754-0.993-0.754-2.938v-5.996l-1.908,0.513
		c-0.078,0-0.116,0.044-0.116,0.082c0,0.079,0.079,0.079,0.158,0.119c0.277,0.16,0.595,0.198,0.595,0.554v5.123
		c0,1.551-0.078,2.186-0.674,2.462c-0.158,0.082-0.279,0.12-0.279,0.237c0,0.041,0.04,0.041,0.121,0.041h2.938
		c0.077,0,0.198,0,0.198-0.041C255.597,200.052,255.476,200.052,255.318,200.014 M266.08,199.974
		c-0.479-0.161-0.636-1.311-0.636-2.424v-3.293c0-2.027-1.032-3.418-4.21-3.418h-0.039c-1.113,0-2.581,0.24-3.932,0.835l0.477,1.669
		c0,0.039,0.038,0.039,0.078,0.039c0.043,0,0.081,0,0.081-0.08c0.159-1.349,2.144-2.027,3.335-2.027h0.039
		c2.225,0,2.779,1.234,2.779,3.299h-1.309c-0.438,0-0.954,0-1.51,0.079c-1.987,0.196-4.488,0.873-4.488,3.017
		c0,1.905,2.028,2.779,3.734,2.779c0.277,0,0.517,0,0.754-0.039c1.271-0.157,2.304-0.714,2.938-1.986h0.04
		c0.041,0.517,0.317,1.232,0.317,1.669c0,0.041,0.038,0.118,0.2,0.118h1.307c0.121,0,0.161-0.041,0.161-0.118
		C266.198,200.052,266.158,200.014,266.08,199.974 M264.053,195.763c0,2.105-0.356,4.131-2.818,4.251h-0.199
		c-1.389,0-2.579-0.797-2.579-2.345c0-1.704,1.348-2.344,2.778-2.579c0.518-0.04,1.032-0.081,1.548-0.081h1.271V195.763z
		 M269.654,198.7c-0.479,0-0.836,0.399-0.836,0.874c0,0.439,0.356,0.835,0.836,0.835c0.516,0,0.833-0.396,0.833-0.835
		C270.487,199.1,270.17,198.7,269.654,198.7"/>
	<path clip-path="url(#SVGID_2_)" fill="#19181C" d="M136.752,168.079l-3.387-0.711l-0.422-0.094
		c-1.975-0.432-4.958-1.081-4.958-3.789c0-2.961,2.487-4.012,4.62-4.012c2.311,0,6.031,0.984,6.816,3.693l0.063,0.227
		c0.104,0.371,0.171,0.617,0.39,0.617c0.218,0,0.328-0.269,0.513-0.84l0.807-2.656c0.031-0.108-0.012-0.229-0.101-0.283
		c-2.153-1.272-5.005-2.034-7.628-2.034c-5.002,0-8.362,2.673-8.362,6.647c0,2.655,2.007,4.443,5.968,5.312l3.619,0.808
		c2.707,0.626,4.174,1.43,4.174,3.887c0,3.598-3.861,4.559-6.143,4.559c-2.844,0-7.004-1.514-7.352-4.896
		c-0.049-0.268-0.21-0.446-0.404-0.446c-0.205,0-0.379,0.163-0.426,0.387l-0.938,3.237c0,0.002-0.079,0.184-0.079,0.299
		c0,0.18,0.133,0.274,0.404,0.408c2.127,1.138,5.564,2.286,8.451,2.286c3.623,0,9.369-1.935,9.369-7.13
		C141.746,170.677,140.02,168.784,136.752,168.079"/>
	<path clip-path="url(#SVGID_2_)" fill="#19181C" d="M158.441,179.256c-0.541-0.19-0.861-1.666-0.861-3.946v-5.767
		c0-4.128-2.354-6.136-7.191-6.136c-2.122,0-4.508,0.538-6.545,1.476c-0.095,0.044-0.145,0.154-0.115,0.26l0.776,2.896
		c0.069,0.212,0.204,0.238,0.312,0.238c0.259,0,0.349-0.186,0.349-0.317c0.237-2.189,3.236-3.356,5.312-3.356
		c3.1,0,4.344,1.492,4.389,5.301h-1.978c-2.345,0-10.001,0.4-10.001,5.556c0,3.297,3.26,5.076,6.326,5.076
		c2.844,0,4.812-1.024,5.998-3.128c0.044,0.236,0.1,0.484,0.152,0.729c0.123,0.56,0.25,1.139,0.25,1.542
		c0,0.222,0.221,0.46,0.551,0.46c0.156,0,0.328-0.013,0.506-0.028c0.182-0.015,0.369-0.032,0.557-0.032
		c0.195,0,0.531,0.024,0.787,0.041c0.158,0.013,0.291,0.02,0.334,0.02c0.264,0,0.467-0.188,0.467-0.429
		C158.814,179.521,158.682,179.358,158.441,179.256 M150.131,179.337c-1.878,0-4.074-1-4.074-3.816c0-2.978,2.254-4.424,6.891-4.424
		h1.92v1.119C154.867,175.736,154.305,179.337,150.131,179.337"/>
	<path clip-path="url(#SVGID_2_)" fill="#19181C" d="M177.021,179.235c-0.564-0.262-0.797-0.371-0.797-3.806v-5.947
		c0-4.479-3.342-6.073-6.47-6.073c-2.61,0-4.798,1.269-5.797,3.295v-2.623c0-0.067-0.03-0.132-0.081-0.172
		c-0.051-0.041-0.119-0.057-0.178-0.041l-2.898,0.791l-0.053,0.012c-0.157,0.036-0.452,0.102-0.452,0.382
		c0,0.217,0.226,0.436,0.517,0.509c0.312,0.111,0.834,0.297,0.834,2.707v6.797c0,2.373-0.313,3.77-0.934,4.15
		c-0.096,0.063-0.188,0.111-0.267,0.153c-0.219,0.119-0.378,0.206-0.378,0.397c0,0.111,0.047,0.372,0.464,0.372
		c0.213,0,0.538-0.012,0.904-0.024c0.47-0.017,1.013-0.037,1.48-0.037c0.471,0,1.014,0.021,1.483,0.037
		c0.363,0.013,0.686,0.024,0.902,0.024c0.13,0,0.438,0,0.438-0.31c0-0.172-0.134-0.255-0.406-0.419
		c-0.063-0.041-0.136-0.085-0.207-0.13c-0.81-0.552-0.938-1.531-0.938-3.667v-4.677c0-3.61,2.146-6.334,4.993-6.334
		c2.916,0,4.33,2.053,4.33,6.277v4.123c0,2.268-0.16,3.767-0.963,4.244c-0.033,0.021-0.088,0.045-0.146,0.072
		c-0.234,0.104-0.526,0.234-0.526,0.51c0,0.31,0.425,0.31,0.608,0.31c0.161,0,0.43-0.01,0.75-0.021
		c0.479-0.019,1.082-0.041,1.635-0.041c0.576,0,1.209,0.024,1.678,0.043c0.279,0.011,0.502,0.019,0.623,0.019
		c0.301,0,0.491-0.129,0.491-0.339C177.661,179.721,177.661,179.54,177.021,179.235"/>
	<path clip-path="url(#SVGID_2_)" fill="#19181C" d="M184.867,164.774h-2.321v-3.969c0-0.259,0-0.613-0.351-0.613
		c-0.237,0-0.43,0.221-0.518,0.589c-0.419,1.739-1.625,3.261-3.314,4.171c-0.344,0.193-0.569,0.342-0.569,0.617
		c0,0.4,0.349,0.4,0.753,0.4h1.457v10.461c0,3.118,0.569,3.646,2.278,3.646c0.591,0,1.175-0.027,1.809-0.061
		c0.31,0,0.697,0,0.697-0.338c0-0.274-0.255-0.318-0.356-0.335c-1.658-0.451-1.886-4.247-1.886-8.283v-5.091h2.612
		c0.098,0,0.184-0.076,0.202-0.18l0.083-0.484c0.003-0.014,0.015-0.068,0.015-0.082c0.005-0.02,0.019-0.09,0.019-0.11
		C185.477,164.774,185.08,164.774,184.867,164.774"/>
	<path clip-path="url(#SVGID_2_)" fill="#19181C" d="M202.114,179.256c-0.543-0.19-0.865-1.666-0.865-3.946v-5.767
		c0-4.128-2.351-6.136-7.188-6.136c-2.124,0-4.511,0.538-6.548,1.476c-0.092,0.044-0.144,0.154-0.114,0.26l0.775,2.894
		c0.067,0.211,0.202,0.24,0.313,0.24c0.258,0,0.352-0.186,0.35-0.317c0.234-2.189,3.234-3.356,5.31-3.356
		c3.101,0,4.343,1.492,4.389,5.301h-1.976c-2.348,0-10.005,0.4-10.005,5.556c0,3.297,3.261,5.076,6.327,5.076
		c2.843,0,4.811-1.024,5.998-3.13c0.046,0.238,0.101,0.486,0.155,0.73c0.122,0.56,0.248,1.139,0.248,1.542
		c0,0.222,0.221,0.46,0.551,0.46c0.155,0,0.326-0.013,0.504-0.028c0.183-0.015,0.37-0.032,0.559-0.032
		c0.195,0,0.53,0.024,0.783,0.041c0.163,0.013,0.294,0.02,0.338,0.02c0.263,0,0.466-0.188,0.466-0.429
		C202.484,179.521,202.354,179.358,202.114,179.256 M193.802,179.337c-1.879,0-4.075-1-4.075-3.816c0-2.978,2.254-4.424,6.892-4.424
		h1.919v1.119C198.537,175.736,197.976,179.337,193.802,179.337"/>
	<path clip-path="url(#SVGID_2_)" fill="#19181C" d="M232.686,175.285c-0.167,0-0.3,0.117-0.413,0.241l-0.072,0.105
		c-0.425,0.598-0.732,1.031-1.542,1.548c-2.326,1.451-5.269,1.651-8.1,1.651c-2.989,0-3.461-0.222-3.602-1.695
		c-0.098-1.056-0.192-2.317-0.192-3.648V169.6h2.51c1.589,0,4.889,0,6.174,0.97c0.514,0.405,0.691,0.771,0.9,1.268
		c0.036,0.065,0.152,0.264,0.335,0.264c0.317,0,0.317-0.46,0.317-0.734v-4.655c0-0.325,0-0.733-0.347-0.733
		c-0.212,0-0.319,0.191-0.378,0.295c-0.197,0.508-0.358,0.828-0.736,1.257c-0.644,0.698-2.533,0.822-6.266,0.822h-2.51v-7.742h4.887
		c3.746,0,5.879,0.88,7.126,2.927c0.224,0.427,0.396,0.427,0.453,0.427c0.253,0,0.369-0.183,0.369-0.353
		c0-0.19-0.359-1.611-0.541-2.254l-0.503-1.836c-0.026-0.095-0.104-0.16-0.194-0.16h-14.879c-0.312,0-0.786,0-0.786,0.419
		c0,0.222,0.163,0.313,0.261,0.368l0.046,0.025c0.882,0.498,0.951,1.41,0.951,2.645v11.049c0,3.158-0.446,5.036-1.243,5.287
		c-0.594,0.157-0.659,0.473-0.659,0.6c0,0.324,0.288,0.324,0.594,0.324h17.003c0.088,0,0.163-0.063,0.191-0.155l1.114-3.785
		c0.072-0.2,0.072-0.362,0.072-0.467C233.026,175.45,232.881,175.285,232.686,175.285"/>
	<path clip-path="url(#SVGID_2_)" fill="#19181C" d="M242.673,157.646c-4.425,0.68-6.67,2.66-6.67,5.89v1.239h-1.919
		c-0.092,0-0.174,0.064-0.198,0.159l-0.202,0.757c-0.019,0.065-0.006,0.137,0.033,0.191s0.101,0.086,0.166,0.086h2.12v10.859
		c0,0.838-0.092,1.881-0.818,2.502c-0.077,0.067-0.152,0.118-0.217,0.158c-0.12,0.078-0.258,0.166-0.258,0.342
		c0,0.31,0.365,0.31,0.521,0.31c0.167,0,0.403-0.01,0.682-0.022c0.394-0.018,0.872-0.039,1.359-0.039
		c1.379,0,2.049,0.035,2.373,0.054c0.103,0.005,0.17,0.008,0.213,0.008c0.409,0,0.495-0.185,0.495-0.339
		c0-0.215-0.197-0.326-0.405-0.443c-0.122-0.068-0.259-0.145-0.361-0.242c-0.693-0.603-1.043-2.648-1.043-6.082v-7.064h2.234
		c0.093,0,0.176-0.064,0.199-0.159l0.198-0.758c0.017-0.065,0.006-0.138-0.033-0.19c-0.041-0.055-0.102-0.086-0.167-0.086h-2.432
		v-3.483c0-1.116,0.727-1.784,1.431-1.784c0.698,0,1.267,0.33,1.788,1.038c0.049,0.064,0.127,0.101,0.2,0.081
		c0.074-0.014,0.138-0.07,0.161-0.148l0.774-2.549c0.023-0.072,0.009-0.15-0.038-0.207
		C242.813,157.663,242.736,157.633,242.673,157.646"/>
	<path clip-path="url(#SVGID_2_)" fill="#19181C" d="M246.207,162.055c0.749,0,1.56-0.64,1.56-1.675s-0.811-1.676-1.56-1.676
		s-1.558,0.641-1.558,1.676S245.458,162.055,246.207,162.055"/>
	<path clip-path="url(#SVGID_2_)" fill="#19181C" d="M248.58,179.356l-0.045-0.011c-0.247-0.077-1.058-0.653-1.058-4.888v-10.375
		c0-0.069-0.03-0.133-0.08-0.174c-0.051-0.041-0.116-0.057-0.18-0.038l-3.131,0.879c-0.116,0.032-0.357,0.1-0.357,0.364
		c0,0.227,0.193,0.304,0.321,0.355l0.044,0.016c0.099,0.059,0.197,0.109,0.293,0.158c0.371,0.188,0.549,0.293,0.549,0.624v8.858
		c0,2.644-0.082,3.682-0.93,4.105c-0.319,0.135-0.62,0.26-0.62,0.566c0,0.341,0.315,0.341,0.435,0.341
		c0.104,0,0.236-0.006,0.417-0.014c0.388-0.021,0.973-0.048,1.969-0.048c0.47,0,1.014,0.021,1.484,0.037
		c0.365,0.013,0.688,0.024,0.901,0.024c0.5,0,0.553-0.239,0.553-0.341C249.146,179.481,248.832,179.413,248.58,179.356"/>
	<path clip-path="url(#SVGID_2_)" fill="#19181C" d="M266.254,164.259c0.053,0.04,0.122,0.051,0.184,0.031
		c0.063-0.021,0.112-0.074,0.134-0.137l0.834-2.58c0.021-0.064,0.013-0.136-0.024-0.192c-0.036-0.057-0.096-0.093-0.161-0.095
		c-0.172-0.01-0.341-0.014-0.509-0.014c-2.346,0-4.274,0.868-5.588,2.509c-0.847-0.189-1.834-0.374-2.821-0.374
		c-2.973,0-7.158,1.801-7.158,5.803c0,2.281,1.826,4.236,3.753,5.025c-1.067,0.256-2.317,0.94-2.317,2.134
		c0,0.959,0.738,1.417,1.403,1.646c-1.784,0.41-4.019,1.42-4.019,3.303c0,3.498,4.677,4.77,7.82,4.77c4.303,0,9.43-0.934,9.43-5.378
		c0-3.286-4.415-3.9-6.306-4.011c-0.121-0.014-0.313-0.025-0.56-0.042c-4.155-0.286-5.026-0.79-5.026-1.166
		c0-0.264,0.113-0.571,0.997-0.571l1.317,0.007c0.597,0,1.303-0.009,2.002-0.067c3.026-0.258,6.285-2.136,6.285-5.648
		c0-2.331-1.239-4-3.782-5.092c0.517-0.518,1.19-0.818,1.851-0.818C264.998,163.3,265.443,163.64,266.254,164.259 M263.037,169.088
		c0,3.222-1.435,4.788-4.39,4.788c-2.979,0-4.621-1.646-4.621-4.635c0-3.09,1.581-4.789,4.449-4.789
		C261.461,164.452,263.037,166.054,263.037,169.088 M258.074,184.89c-1.415,0-5.453-0.595-5.453-3.242
		c0-2.686,2.864-2.996,5.02-2.996c2.66,0,7.121,0.382,7.121,2.938C264.762,183.595,262.137,184.89,258.074,184.89"/>
	<path clip-path="url(#SVGID_2_)" fill="#19181C" d="M272.063,162.139h0.915c0.046,0,0.089-0.017,0.122-0.044l3.043-2.096
		l3.045,2.096c0.033,0.027,0.076,0.044,0.123,0.044h0.915c0.072,0,0.136-0.04,0.17-0.101c0.032-0.061,0.024-0.136-0.019-0.189
		l-3.271-3.803c-0.036-0.048-0.091-0.074-0.151-0.074h-1.648c-0.061,0-0.115,0.028-0.15,0.074l-3.246,3.803
		c-0.041,0.054-0.049,0.129-0.016,0.189C271.927,162.099,271.993,162.139,272.063,162.139"/>
	<path clip-path="url(#SVGID_2_)" fill="#19181C" d="M283.615,173.392c-0.335,0-0.533,0.305-0.579,0.602
		c-0.19,1.105-2.272,5.223-6.376,5.223c-4.886,0-5.911-4.287-5.911-7.883c0-0.418,0.069-0.896,0.137-1.267h12.67h0.01
		c0.114,0,0.207-0.099,0.207-0.22c0-0.031-0.005-0.063-0.017-0.088c-0.406-4.361-4.354-6.35-7.868-6.35
		c-5.202,0-8.311,4.243-8.311,8.349c0,4.921,3.5,8.777,7.964,8.777c4.088,0,7.29-2.233,8.354-5.819
		c0.101-0.288,0.156-0.584,0.156-0.832C284.052,173.585,283.881,173.392,283.615,173.392 M271.034,168.869
		c0.693-2.87,2.339-4.267,5.021-4.267c2.64,0,4.436,1.704,4.531,4.267H271.034z"/>
	<path clip-path="url(#SVGID_2_)" fill="#19181C" d="M302.23,179.235c-0.564-0.262-0.796-0.371-0.796-3.806v-5.947
		c0-4.479-3.343-6.073-6.47-6.073c-2.614,0-4.804,1.27-5.801,3.299v-2.627c0-0.067-0.031-0.132-0.08-0.172
		c-0.052-0.041-0.117-0.057-0.178-0.041l-2.898,0.791l-0.051,0.012c-0.159,0.036-0.452,0.102-0.452,0.382
		c0,0.217,0.224,0.436,0.515,0.509c0.313,0.111,0.836,0.297,0.836,2.707v6.797c0,2.376-0.313,3.771-0.933,4.15
		c-0.096,0.061-0.19,0.109-0.269,0.153c-0.22,0.119-0.38,0.205-0.38,0.397c0,0.111,0.045,0.372,0.466,0.372
		c0.214,0,0.536-0.012,0.902-0.024c0.471-0.017,1.014-0.037,1.48-0.037c0.47,0,1.015,0.021,1.485,0.037
		c0.365,0.013,0.688,0.024,0.9,0.024c0.131,0,0.439,0,0.439-0.31c0-0.172-0.128-0.251-0.406-0.422l-0.208-0.127
		c-0.81-0.552-0.94-1.533-0.94-3.667v-4.677c0-3.61,2.147-6.334,4.995-6.334c2.915,0,4.334,2.053,4.334,6.277v4.123
		c0,2.267-0.161,3.767-0.966,4.244c-0.034,0.021-0.088,0.045-0.146,0.072c-0.236,0.104-0.528,0.234-0.528,0.51
		c0,0.31,0.411,0.31,0.609,0.31c0.16,0,0.43-0.01,0.751-0.021c0.479-0.019,1.083-0.041,1.634-0.041c0.577,0,1.209,0.024,1.678,0.043
		c0.279,0.011,0.502,0.019,0.621,0.019c0.304,0,0.494-0.129,0.494-0.339C302.87,179.724,302.87,179.54,302.23,179.235"/>
	<path clip-path="url(#SVGID_2_)" fill="#19181C" d="M307.26,162.055c0.749,0,1.558-0.64,1.558-1.675s-0.809-1.676-1.558-1.676
		c-0.75,0-1.558,0.641-1.558,1.676S306.51,162.055,307.26,162.055"/>
	<path clip-path="url(#SVGID_2_)" fill="#19181C" d="M309.636,179.356l-0.047-0.011c-0.249-0.077-1.058-0.653-1.058-4.888v-10.375
		c0-0.069-0.031-0.133-0.083-0.174c-0.051-0.041-0.117-0.057-0.179-0.038l-3.129,0.879c-0.105,0.028-0.357,0.098-0.357,0.364
		c0,0.227,0.194,0.305,0.325,0.357l0.04,0.014c0.099,0.059,0.196,0.109,0.293,0.158c0.37,0.188,0.549,0.293,0.549,0.624v8.858
		c0,2.642-0.081,3.682-0.934,4.105c-0.317,0.135-0.619,0.264-0.619,0.566c0,0.341,0.316,0.341,0.437,0.341
		c0.104,0,0.235-0.006,0.419-0.014c0.387-0.021,0.974-0.048,1.967-0.048c0.47,0,1.012,0.021,1.483,0.037
		c0.365,0.013,0.688,0.024,0.901,0.024c0.498,0,0.553-0.239,0.553-0.341C310.197,179.482,309.886,179.413,309.636,179.356"/>
	<path clip-path="url(#SVGID_2_)" fill="#19181C" d="M327.264,179.256c-0.541-0.19-0.865-1.667-0.865-3.946v-5.767
		c0-4.128-2.352-6.136-7.186-6.136c-2.127,0-4.513,0.538-6.547,1.476c-0.096,0.044-0.145,0.154-0.116,0.26l0.778,2.89
		c0.065,0.215,0.2,0.244,0.31,0.244c0.258,0,0.351-0.186,0.349-0.316c0.237-2.19,3.238-3.357,5.311-3.357
		c3.101,0,4.344,1.492,4.389,5.301h-1.976c-2.346,0-10,0.4-10,5.556c0,3.297,3.256,5.076,6.321,5.076c2.846,0,4.814-1.024,6-3.128
		c0.045,0.236,0.102,0.486,0.154,0.729c0.122,0.561,0.249,1.139,0.249,1.542c0,0.222,0.223,0.46,0.553,0.46
		c0.155,0,0.327-0.013,0.503-0.028c0.182-0.015,0.372-0.032,0.56-0.032c0.194,0,0.53,0.024,0.782,0.041
		c0.161,0.013,0.292,0.02,0.337,0.02c0.261,0,0.466-0.188,0.466-0.429C327.635,179.522,327.504,179.36,327.264,179.256
		 M318.953,179.337c-1.88,0-4.074-1-4.074-3.816c0-2.978,2.254-4.424,6.89-4.424h1.918v1.119
		C323.687,175.736,323.125,179.337,318.953,179.337"/>
	<path clip-path="url(#SVGID_2_)" fill-rule="evenodd" clip-rule="evenodd" fill="#FFBD4F" d="M211.756,90.854
		c1.195-1.811,3.207-2.19,5.355-2.57c1.572-0.277,3.531-1.043,5.979-0.362c1.643,0.456,3.344,1.714,5.498,2.664
		c1.808,0.798,3.871,2.184,6.261,3.692c1.917,1.215,4.115,2.355,6.205,3.851c1.946,1.392,3.762,3.092,5.706,4.596
		c1.973,1.526,3.768,3.231,5.586,4.736c2.029,1.685,4.386,2.74,6.02,4.222c2.349,2.133,3.727,4.373,4.717,5.612
		c1.285,1.608,2.336,3.221,3.132,4.96c0.886,1.941,2.203,3.708,2.354,5.563c0.177,2.142-0.192,4.436-1.187,6.083
		c-0.918,1.521-3.004,2.662-5.653,3.484c-1.705,0.531-3.627,0.543-6.375-0.102c-1.819-0.425-4.064-0.549-6.43-1.741
		c-1.763-0.888-3.365-2.54-5.464-3.949c-1.695-1.138-4.066-1.657-5.999-3.185c-1.637-1.293-3.238-2.92-5.058-4.521
		c-1.815-1.598-3.429-3.196-4.967-4.64c-1.792-1.684-3.099-3.587-4.546-5.074c-1.761-1.809-3.866-2.937-5.172-4.479
		c-1.706-2.022-3.084-3.888-4.123-5.51c-1.567-2.449-1.859-4.805-2.268-6.506c-0.731-3.029-0.37-5.156,0.636-6.681"/>
	<path clip-path="url(#SVGID_2_)" fill-rule="evenodd" clip-rule="evenodd" fill="#19181C" d="M235.515,90.56
		c-0.184-0.996,2.181-2.46,4.671,0.519c2.491,2.977,4.901,6.77,3.963,12.892c-0.94,6.123,0.252,10.137,0.889,11.738
		c-1.796-3.563-2.608-9.249-2.524-14.414c0.085-5.166-2.487-9.844-4.35-9.39C236.302,92.361,235.515,90.56,235.515,90.56"/>
	<path clip-path="url(#SVGID_2_)" fill-rule="evenodd" clip-rule="evenodd" fill="#19181C" d="M249.154,100.597
		c-0.04-0.809,2.715-1.968,4.914,0.471c2.2,2.439,4.188,5.538,2.238,10.488s-1.3,8.216-0.867,9.52
		c-1.367-2.905-1.356-7.521-0.465-11.705c0.889-4.184-1.136-8.002-3.196-7.654C249.717,102.065,249.154,100.597,249.154,100.597"/>
	<path clip-path="url(#SVGID_2_)" fill-rule="evenodd" clip-rule="evenodd" fill="#19181C" d="M247.308,114.944
		c0.643,1.496,1.755-4.02,3.506-5.686c1.749-1.668,2.917-7.605-0.553-8.528c-3.468-0.924-1.643,1.382-0.256,2.204
		c1.387,0.821,0.73,4.792-1.354,7.136C246.568,112.413,246.753,113.655,247.308,114.944"/>
	<path clip-path="url(#SVGID_2_)" fill-rule="evenodd" clip-rule="evenodd" fill="#19181C" d="M261.291,110.632
		c0.105-0.745,3.944,0.377,4.715,4.284c0.771,3.907,5.123,10.936,2.736,20.334c-1.487,3.054-3.385,2.774-3.385,2.774
		s2.688-0.758,2.76-5.188c0.07-4.43-1.975-14.355-3.678-16.789C262.734,113.613,261.002,112.704,261.291,110.632"/>
	<path clip-path="url(#SVGID_2_)" fill-rule="evenodd" clip-rule="evenodd" fill="#19181C" d="M263.292,114.774
		c-0.132,1.164-2.963,6.946-6.397,7.575c1.529-1.653,4.94-4.91,5.276-8.061C262.51,111.137,263.292,114.774,263.292,114.774"/>
	<path clip-path="url(#SVGID_2_)" fill-rule="evenodd" clip-rule="evenodd" fill="#19181C" d="M259.468,137.851
		c0.491,0.617-3.077,2.521-6.585,0.221c-3.51-2.305-11.918-4.344-17.356-12.891c-1.264-3.286,0.29-4.425,0.29-4.425
		s-1.326,2.458,1.983,5.739c3.306,3.281,12.281,9.07,15.333,9.637C256.186,136.698,258.103,136.134,259.468,137.851"/>
	<path clip-path="url(#SVGID_2_)" fill-rule="evenodd" clip-rule="evenodd" fill="#FFBD4F" d="M185.949,128.698
		c-2.059-2.012-2.239-4.422-1.147-8.004c0.631-2.068,1.397-4.734,3.458-7.819c1.047-1.565,2.469-3.501,4.268-5.491
		c1.446-1.598,3.102-3.283,4.836-4.995c1.614-1.595,3.447-3.075,5.167-4.646c1.744-1.598,3.569-3.07,5.271-4.522
		c1.898-1.625,3.776-3.046,5.422-4.331c2.364-1.848,4.039-3.769,5.353-4.49c2.612-1.438,5.613-1.631,8.197-1.894
		c3.131-0.32,6.047-0.175,7.994,1.58c1.433,1.291,3.146,3.553,3.068,6.897c-0.047,1.968-0.482,4.562-2.128,7.431
		c-1.062,1.85-2.568,3.986-4.565,6.258c-1.49,1.693-3.78,3.029-5.894,4.977c-1.714,1.577-3.417,3.502-5.596,5.256
		c-2.169,1.748-4.525,2.879-6.419,4.286c-2.294,1.701-3.923,3.837-5.847,5.087c-2.506,1.632-4.818,2.782-6.766,3.754
		c-2.959,1.476-5.444,1.896-7.357,2.21c-3.711,0.606-6.006-0.083-7.404-1.45"/>
	<path clip-path="url(#SVGID_2_)" fill-rule="evenodd" clip-rule="evenodd" fill="#19181C" d="M216.043,115.598
		c-1.012-1.013-4.501-0.226-12.605,6.866c-8.105,7.09-15.08,9.998-20.518,4.171c-3.686-3.947-2.551-1.423-2.551-1.423
		s1.683,11.957,21.429,5.82C217.057,126.29,217.057,116.61,216.043,115.598 M190.83,130.795c0,0,7.88-1.688,15.309-8.556
		c7.43-6.867,8.667-5.179,8.667-5.179S213.905,127.079,190.83,130.795"/>
	<path clip-path="url(#SVGID_2_)" fill-rule="evenodd" clip-rule="evenodd" fill="#19181C" d="M184.079,121.737
		c0,0-3.969-0.192-2.493-5.473c1.477-5.282,4.686-8.009,13.942-6.928C185.314,110.982,181.827,114.032,184.079,121.737"/>
	<path clip-path="url(#SVGID_2_)" fill-rule="evenodd" clip-rule="evenodd" fill="#19181C" d="M189.255,106.931
		c-1.013,0-2.027-2.589,1.351-4.504c3.375-1.912,7.541-3.601,13.394-1.574c5.854,2.025,10.019,1.574,11.708,1.236
		c-3.828,1.125-9.567,0.901-14.634-0.111s-10.132,0.676-10.018,2.589C191.166,106.479,189.255,106.931,189.255,106.931"/>
	<path clip-path="url(#SVGID_2_)" fill-rule="evenodd" clip-rule="evenodd" fill="#19181C" d="M206.813,109.294
		c1.96-0.523-4.728-1.801-6.528-3.487c-1.801-1.691-9.005-3.041-10.693,0.11c-1.689,3.152,1.465,1.576,2.701,0.338
		c1.238-1.238,6.079-0.45,8.666,1.576C203.551,109.857,205.124,109.743,206.813,109.294"/>
	<path clip-path="url(#SVGID_2_)" fill-rule="evenodd" clip-rule="evenodd" fill="#19181C" d="M201.583,95.319
		c-0.803-0.105-1.447-3.024,1.351-4.749c2.794-1.727,6.198-3.124,10.718-0.313c4.517,2.81,7.849,2.757,9.208,2.564
		c-3.104,0.824-7.644-0.02-11.598-1.649c-3.956-1.627-8.075-0.322-8.105,1.769C203.129,95.03,201.583,95.319,201.583,95.319"/>
	<path clip-path="url(#SVGID_2_)" fill-rule="evenodd" clip-rule="evenodd" fill="#19181C" d="M215.364,99.719
		c1.586-0.362-3.638-2.45-4.964-4.471c-1.324-2.021-6.954-4.24-8.486-0.993c-1.531,3.246,1.063,1.864,2.121,0.648
		c1.059-1.216,4.847,0.145,6.774,2.616C212.741,99.991,213.997,100.031,215.364,99.719"/>
	<path clip-path="url(#SVGID_2_)" fill-rule="evenodd" clip-rule="evenodd" fill="#19181C" d="M213.64,85.188
		c-0.715-0.238,1.08-3.813,5.063-3.868c3.983-0.054,11.678-3.067,20.493,0.972c2.736,2.014,2.118,3.828,2.118,3.828
		s-0.261-2.78-4.604-3.648c-4.345-0.867-14.477-0.642-17.177,0.596C216.83,84.305,215.624,85.845,213.64,85.188"/>
	<path clip-path="url(#SVGID_2_)" fill-rule="evenodd" clip-rule="evenodd" fill="#19181C" d="M218.074,83.967
		c1.12,0.338,6.3,4.166,6.3,7.655c-1.352-1.802-3.942-5.742-6.979-6.642C214.356,84.081,218.074,83.967,218.074,83.967"/>
	<path clip-path="url(#SVGID_2_)" fill-rule="evenodd" clip-rule="evenodd" fill="#19181C" d="M240.085,91.881
		c0.697-0.371,1.926,3.48-0.971,6.518c-2.896,3.036-6.417,10.941-15.803,14.752c-3.459,0.651-4.299-1.082-4.299-1.082
		s2.178,1.747,6.003-0.916c3.824-2.663,11.131-10.447,12.239-13.349C238.362,94.903,238.152,92.916,240.085,91.881"/>
	<path clip-path="url(#SVGID_2_)" fill="#19181C" d="M229.665,146.494c-32.866,0-59.604-10.722-59.604-23.899
		c0-1.443,0.322-2.882,0.961-4.296c-1.795,2.259-2.703,4.597-2.703,6.974c0,12.909,26.52,23.411,59.116,23.411
		c24.852,0,46.864-6.17,55.403-15.261C272.758,141.429,252.414,146.494,229.665,146.494"/>
	<path clip-path="url(#SVGID_2_)" fill="#F7A800" d="M283.688,205.617c0,0.271-26.017,0.49-58.11,0.49
		c-32.091,0-58.107-0.22-58.107-0.49s26.017-0.491,58.107-0.491C257.671,205.126,283.688,205.347,283.688,205.617"/>
	<path clip-path="url(#SVGID_2_)" fill="#19181C" d="M195.632,211.845c0-0.939,0-1.111-0.016-1.309
		c-0.009-0.209-0.06-0.311-0.262-0.352c-0.051-0.014-0.156-0.019-0.243-0.019c-0.066,0-0.104-0.013-0.104-0.056
		s0.043-0.057,0.138-0.057c0.326,0,0.714,0.02,0.888,0.02c0.192,0,0.581-0.02,0.951-0.02c0.771,0,1.802,0,2.477,0.704
		c0.306,0.321,0.598,0.834,0.598,1.567c0,0.778-0.327,1.371-0.673,1.723c-0.285,0.291-0.926,0.729-2.068,0.729
		c-0.224,0-0.477-0.018-0.709-0.037c-0.234-0.018-0.452-0.037-0.605-0.037c-0.069,0-0.204,0-0.353,0.007
		c-0.142,0-0.303,0.013-0.427,0.013c-0.078,0-0.122-0.02-0.122-0.063c0-0.03,0.024-0.049,0.098-0.049
		c0.093,0,0.166-0.013,0.222-0.025c0.124-0.023,0.155-0.16,0.182-0.339c0.03-0.259,0.03-0.747,0.03-1.314V211.845z M196.402,212.524
		c0,0.654,0.007,1.129,0.012,1.248c0.008,0.153,0.019,0.4,0.068,0.468c0.08,0.117,0.321,0.247,0.811,0.247
		c0.627,0,1.048-0.125,1.419-0.445c0.395-0.34,0.519-0.9,0.519-1.537c0-0.784-0.328-1.29-0.594-1.543
		c-0.567-0.543-1.271-0.617-1.752-0.617c-0.125,0-0.354,0.019-0.402,0.043c-0.056,0.025-0.073,0.057-0.073,0.124
		c-0.007,0.21-0.007,0.746-0.007,1.235V212.524z"/>
	<path clip-path="url(#SVGID_2_)" fill="#19181C" d="M203.819,211.845c0-0.939,0-1.111-0.012-1.309
		c-0.013-0.21-0.063-0.309-0.266-0.352c-0.051-0.014-0.155-0.019-0.242-0.019c-0.066,0-0.104-0.013-0.104-0.058
		c0-0.041,0.042-0.055,0.137-0.055c0.164,0,0.343,0.006,0.498,0.006c0.161,0.008,0.304,0.014,0.39,0.014
		c0.197,0,1.426,0,1.543-0.006c0.116-0.014,0.217-0.024,0.266-0.037c0.031-0.008,0.066-0.024,0.099-0.024
		c0.031,0,0.039,0.024,0.039,0.054c0,0.044-0.032,0.118-0.051,0.402c-0.005,0.063-0.021,0.334-0.032,0.406
		c-0.006,0.031-0.017,0.068-0.062,0.068c-0.042,0-0.056-0.031-0.056-0.085c0-0.043-0.004-0.147-0.037-0.223
		c-0.043-0.112-0.105-0.187-0.413-0.223c-0.104-0.013-0.751-0.023-0.876-0.023c-0.03,0-0.044,0.018-0.044,0.06v1.564
		c0,0.043,0.006,0.066,0.044,0.066c0.136,0,0.846,0,0.988-0.011c0.147-0.013,0.24-0.032,0.295-0.095
		c0.043-0.051,0.067-0.08,0.099-0.08c0.024,0,0.045,0.014,0.045,0.05c0,0.037-0.025,0.136-0.05,0.45
		c-0.006,0.124-0.026,0.37-0.026,0.414c0,0.049,0,0.117-0.054,0.117c-0.043,0-0.058-0.025-0.058-0.055
		c-0.006-0.063-0.006-0.143-0.023-0.223c-0.032-0.125-0.118-0.217-0.345-0.24c-0.118-0.014-0.729-0.019-0.877-0.019
		c-0.032,0-0.038,0.024-0.038,0.06v0.489c0,0.209-0.006,0.778,0,0.956c0.014,0.426,0.113,0.52,0.741,0.52c0.16,0,0.42,0,0.581-0.075
		c0.159-0.073,0.232-0.203,0.276-0.456c0.013-0.067,0.025-0.093,0.068-0.093c0.05,0,0.05,0.048,0.05,0.111
		c0,0.142-0.05,0.562-0.081,0.683c-0.042,0.162-0.098,0.162-0.331,0.162c-0.465,0-0.805-0.011-1.069-0.018
		c-0.266-0.013-0.456-0.02-0.642-0.02c-0.069,0-0.204,0-0.352,0.007c-0.144,0-0.305,0.013-0.427,0.013
		c-0.079,0-0.123-0.02-0.123-0.063c0-0.03,0.024-0.049,0.098-0.049c0.092,0,0.166-0.013,0.223-0.023
		c0.122-0.025,0.155-0.162,0.18-0.341c0.03-0.259,0.03-0.747,0.03-1.314V211.845z"/>
	<path clip-path="url(#SVGID_2_)" fill="#19181C" d="M209.853,214.647c-0.097-0.043-0.117-0.072-0.117-0.209
		c0-0.341,0.024-0.711,0.032-0.811c0.006-0.092,0.022-0.16,0.074-0.16c0.055,0,0.063,0.057,0.063,0.104
		c0,0.081,0.022,0.211,0.053,0.315c0.137,0.457,0.501,0.624,0.883,0.624c0.558,0,0.828-0.376,0.828-0.703
		c0-0.304-0.093-0.588-0.605-0.989l-0.284-0.221c-0.68-0.533-0.913-0.964-0.913-1.465c0-0.677,0.569-1.166,1.424-1.166
		c0.404,0,0.664,0.063,0.823,0.106c0.056,0.011,0.087,0.029,0.087,0.073c0,0.08-0.023,0.259-0.023,0.74
		c0,0.136-0.021,0.186-0.069,0.186c-0.044,0-0.061-0.037-0.061-0.109c0-0.059-0.032-0.247-0.162-0.409
		c-0.094-0.116-0.272-0.303-0.671-0.303c-0.459,0-0.737,0.267-0.737,0.636c0,0.284,0.143,0.501,0.656,0.891l0.172,0.129
		c0.746,0.562,1.013,0.986,1.013,1.574c0,0.356-0.137,0.783-0.581,1.074c-0.307,0.196-0.653,0.252-0.981,0.252
		C210.397,214.808,210.119,214.765,209.853,214.647"/>
	<path clip-path="url(#SVGID_2_)" fill="#19181C" d="M216.257,211.845c0-0.939,0-1.111-0.013-1.309
		c-0.012-0.209-0.062-0.311-0.266-0.352c-0.049-0.014-0.155-0.019-0.241-0.019c-0.066,0-0.104-0.013-0.104-0.056
		s0.042-0.057,0.134-0.057c0.328,0,0.718,0.02,0.89,0.02c0.193,0,0.582-0.02,0.952-0.02c0.771,0,1.801,0,2.474,0.704
		c0.309,0.321,0.6,0.834,0.6,1.567c0,0.778-0.327,1.371-0.674,1.723c-0.282,0.291-0.924,0.729-2.067,0.729
		c-0.223,0-0.476-0.018-0.71-0.037c-0.232-0.018-0.45-0.037-0.604-0.037c-0.069,0-0.204,0-0.354,0.007
		c-0.142,0-0.303,0.013-0.425,0.013c-0.082,0-0.124-0.02-0.124-0.063c0-0.03,0.024-0.049,0.098-0.049
		c0.093,0,0.167-0.013,0.224-0.025c0.125-0.023,0.155-0.16,0.18-0.339c0.03-0.259,0.03-0.747,0.03-1.314V211.845z M217.027,212.524
		c0,0.654,0.006,1.129,0.013,1.248c0.008,0.153,0.02,0.4,0.067,0.468c0.081,0.117,0.32,0.247,0.811,0.247
		c0.631,0,1.049-0.125,1.419-0.445c0.394-0.34,0.519-0.9,0.519-1.537c0-0.784-0.328-1.29-0.593-1.543
		c-0.567-0.543-1.271-0.617-1.752-0.617c-0.125,0-0.354,0.019-0.403,0.043c-0.056,0.025-0.074,0.057-0.074,0.124
		c-0.006,0.21-0.006,0.746-0.006,1.235V212.524z"/>
	<path clip-path="url(#SVGID_2_)" fill="#19181C" d="M224.445,211.845c0-0.939,0-1.111-0.011-1.309
		c-0.014-0.21-0.063-0.309-0.268-0.352c-0.049-0.014-0.153-0.019-0.24-0.019c-0.067,0-0.104-0.013-0.104-0.058
		c0-0.041,0.043-0.055,0.135-0.055c0.168,0,0.345,0.006,0.5,0.006c0.161,0.008,0.303,0.014,0.39,0.014c0.197,0,1.426,0,1.545-0.006
		c0.115-0.014,0.213-0.024,0.265-0.037c0.03-0.008,0.068-0.024,0.1-0.024c0.03,0,0.036,0.024,0.036,0.054
		c0,0.044-0.032,0.118-0.05,0.402c-0.005,0.063-0.018,0.334-0.031,0.406c-0.007,0.031-0.019,0.068-0.063,0.068
		s-0.054-0.031-0.054-0.085c0-0.043-0.006-0.147-0.038-0.223c-0.044-0.112-0.105-0.187-0.413-0.223
		c-0.104-0.013-0.754-0.023-0.877-0.023c-0.029,0-0.043,0.018-0.043,0.06v1.564c0,0.043,0.005,0.066,0.043,0.066
		c0.136,0,0.845,0,0.987-0.011c0.149-0.013,0.242-0.032,0.296-0.095c0.045-0.051,0.067-0.08,0.099-0.08
		c0.027,0,0.044,0.014,0.044,0.05c0,0.037-0.024,0.136-0.05,0.45c-0.004,0.124-0.025,0.37-0.025,0.414c0,0.049,0,0.117-0.054,0.117
		c-0.043,0-0.057-0.025-0.057-0.055c-0.007-0.063-0.007-0.143-0.024-0.223c-0.031-0.125-0.117-0.217-0.345-0.24
		c-0.118-0.014-0.729-0.019-0.877-0.019c-0.032,0-0.037,0.024-0.037,0.06v0.489c0,0.209-0.006,0.778,0,0.956
		c0.014,0.426,0.109,0.52,0.741,0.52c0.159,0,0.418,0,0.579-0.075c0.16-0.073,0.234-0.203,0.278-0.456
		c0.012-0.067,0.023-0.093,0.068-0.093c0.049,0,0.049,0.048,0.049,0.111c0,0.142-0.049,0.562-0.08,0.683
		c-0.045,0.162-0.1,0.162-0.334,0.162c-0.463,0-0.803-0.011-1.067-0.018c-0.266-0.013-0.457-0.02-0.643-0.02
		c-0.068,0-0.202,0-0.351,0.007c-0.143,0-0.303,0.013-0.427,0.013c-0.081,0-0.124-0.02-0.124-0.063c0-0.03,0.026-0.049,0.1-0.049
		c0.091,0,0.165-0.013,0.222-0.023c0.123-0.025,0.155-0.162,0.18-0.341c0.03-0.259,0.03-0.747,0.03-1.314V211.845z"/>
	<path clip-path="url(#SVGID_2_)" fill="#19181C" d="M235.716,211.864v-0.811c0-0.148,0-0.221-0.095-0.221
		c-0.115,0-0.577,0.24-0.715,0.296c-0.029,0.013-0.062,0.024-0.086,0.024c-0.019,0-0.049-0.031-0.049-0.068
		c0-0.036,0.03-0.068,0.061-0.086c0.025-0.012,1.21-0.79,1.428-0.95c0.054-0.038,0.109-0.081,0.16-0.081
		c0.054,0,0.074,0.068,0.074,0.129c0,0.051-0.038,0.661-0.038,1.605v1.142c0,0.593,0,1.118,0.026,1.392
		c0.017,0.195,0.048,0.289,0.247,0.332c0.09,0.018,0.357,0.037,0.406,0.037c0.024,0,0.055,0.019,0.055,0.062
		s-0.03,0.056-0.098,0.056c-0.469,0-0.864-0.02-1.03-0.02c-0.145,0-0.661,0.02-1.057,0.02c-0.067,0-0.104-0.013-0.104-0.056
		s0.024-0.062,0.05-0.062c0.067,0,0.382-0.02,0.494-0.043c0.197-0.045,0.227-0.131,0.247-0.326c0.023-0.273,0.035-0.799,0.028-1.392
		L235.716,211.864z"/>
	<path clip-path="url(#SVGID_2_)" fill="#19181C" d="M243.699,211.646c0,1.73-1.512,2.818-2.276,3.176
		c-0.031,0.018-0.063,0.024-0.112,0.024c-0.025,0-0.055-0.032-0.055-0.062c0-0.044,0.041-0.08,0.074-0.106
		c0.643-0.388,1.604-1.401,1.604-2.857c0-1.093-0.463-1.574-0.938-1.574c-0.443,0-0.74,0.396-0.74,0.919
		c0,0.945,0.61,1.166,0.819,1.166c0.217,0,0.341-0.035,0.422-0.071c0.065-0.038,0.098-0.07,0.122-0.07
		c0.023,0,0.05,0.024,0.05,0.056c0,0.021-0.02,0.057-0.031,0.07c-0.179,0.189-0.5,0.283-0.815,0.283
		c-0.889,0-1.258-0.675-1.258-1.191c0-0.835,0.629-1.439,1.579-1.439C243.149,209.968,243.699,210.71,243.699,211.646"/>
	<path clip-path="url(#SVGID_2_)" fill="#19181C" d="M247.083,214.696c-0.104-0.055-0.117-0.109-0.117-0.24
		c0-0.203-0.005-0.574,0.026-0.777c0.012-0.063,0.03-0.111,0.068-0.111c0.042,0,0.055,0.036,0.055,0.104
		c0,0.66,0.407,0.827,0.841,0.827c0.492,0,1.017-0.327,1.017-1.13c0-0.986-1.073-1.395-1.561-1.462
		c-0.076-0.014-0.116-0.043-0.111-0.124l0.143-1.63c0.004-0.062,0.047-0.081,0.117-0.081h1.511c0.173,0,0.279-0.013,0.345-0.024
		c0.069-0.005,0.105-0.018,0.125-0.018c0.05,0,0.063,0.023,0.063,0.115c0,0.132-0.019,0.402-0.082,0.791
		c-0.005,0.038-0.023,0.075-0.067,0.075c-0.038,0-0.049-0.037-0.049-0.087c0-0.174-0.043-0.332-0.544-0.332h-1.123l-0.086,0.752
		c0.919,0.148,2.043,0.655,2.043,1.729c0,0.822-0.6,1.734-2.03,1.734C247.466,214.808,247.238,214.771,247.083,214.696"/>
	<path clip-path="url(#SVGID_2_)" fill="#19181C" d="M252.908,213.036c0-1.205,0.951-2.494,2.29-3.03
		c0.056-0.026,0.104-0.038,0.136-0.038c0.038,0,0.075,0.02,0.075,0.055c0,0.057-0.088,0.102-0.155,0.136
		c-0.723,0.408-1.575,1.409-1.575,2.886c0,0.721,0.315,1.492,0.939,1.492c0.426,0,0.777-0.321,0.777-1.037
		c0-0.857-0.463-1.233-0.869-1.233c-0.155,0-0.235,0.017-0.323,0.042c-0.048,0.013-0.104,0.038-0.134,0.038
		c-0.025,0-0.051-0.021-0.051-0.063s0.031-0.067,0.067-0.092c0.187-0.128,0.465-0.223,0.804-0.223c0.868,0,1.26,0.704,1.26,1.253
		c0,0.958-0.71,1.587-1.613,1.587C253.586,214.808,252.908,214.153,252.908,213.036"/>
</g>
</svg>
