<?xml version="1.0" encoding="utf-8"?>
<!-- Generator: Adobe Illustrator 16.0.0, SVG Export Plug-In . SVG Version: 6.00 Build 0)  -->
<!DOCTYPE svg PUBLIC "-//W3C//DTD SVG 1.1//EN" "http://www.w3.org/Graphics/SVG/1.1/DTD/svg11.dtd">
<svg version="1.1" id="Layer_1" xmlns="http://www.w3.org/2000/svg" xmlns:xlink="http://www.w3.org/1999/xlink" x="0px" y="0px"
	 width="901.367px" height="328.484px" viewBox="0 0 901.367 328.484" enable-background="new 0 0 901.367 328.484"
	 xml:space="preserve">
<g>
	<path fill="#B08046" d="M1014.813,364.201C660.037,189.76,238.326,345.05-116.455,170.607l19.23-94.724
		c362.783,135.027,792.953-61.935,1155.732,73.087L1014.813,364.201z"/>
	<path fill="#361414" d="M1014.813,356.006C660.037,181.564,238.326,336.854-116.455,162.412l19.23-94.724
		c362.783,135.027,792.953-61.935,1155.732,73.087L1014.813,356.006z"/>
	<path fill="#271013" d="M0,67.869c301.701,100.369,603.398-135.72,905.104-35.35v96.656C603.398,69.026,301.701,347.636,0,287.49
		V67.869z"/>
	<path fill="#D39259" d="M0,287.487c301.701,60.148,603.398-218.461,905.104-158.312v1.779
		C603.398,78.744,301.701,365.294,0,313.082V287.487z"/>
	<g>
		<path fill="#351718" d="M828.131,80.788c-1.936-0.327-3.652-2.736-3.342-4.68c0.332-2.072,2.498-3.772,4.533-3.483
			c2.416,0.349,3.928,2.377,3.484,4.892C832.445,79.579,830.182,81.135,828.131,80.788"/>
		<path fill="#351718" d="M731.588,77.993c2.594,0.468,3.643,2.729,3.285,4.572c-0.4,2.043-2.129,3.764-4.586,3.286
			c-2.58-0.506-3.531-2.354-3.283-4.582C727.244,79.117,729.328,77.687,731.588,77.993"/>
		<path fill="#351718" d="M822.467,91.683c-2.146-0.313-3.725-2.344-3.469-4.464c0.285-2.374,2.529-4.001,4.836-3.524
			c2.176,0.451,3.541,2.425,3.205,4.649C826.727,90.438,824.598,91.991,822.467,91.683"/>
		<path fill="#351718" d="M713.418,91.068c-2.004-0.414-3.461-2.692-3.066-4.781c0.414-2.158,2.52-3.697,4.568-3.341
			c2.344,0.407,3.838,2.721,3.244,5.04C717.605,90.146,715.523,91.501,713.418,91.068"/>
		<path fill="#351718" d="M887.447,97.711c-2.137-0.259-3.592-2.164-3.381-4.419c0.193-2.06,2.213-3.776,4.281-3.633
			c2.16,0.151,4.1,2.623,3.615,4.746C891.385,96.935,889.65,97.86,887.447,97.711"/>
		<path fill="#351718" d="M797.154,103.067c0.479-2.34,2.75-3.757,5.035-3.138c1.965,0.533,3.313,2.906,2.77,4.878
			c-0.584,2.103-2.789,3.478-4.76,2.981C798.098,107.256,796.734,105.146,797.154,103.067"/>
		<path fill="#351718" d="M887.699,69.823c-2.211-0.322-3.678-2.185-3.451-4.385c0.207-2.038,2.305-3.695,4.404-3.484
			c2.379,0.246,4.059,2.435,3.602,4.703C891.803,68.9,889.994,70.162,887.699,69.823"/>
		<path fill="#351718" d="M846.201,87.255c0.295-2.203,2.094-3.684,4.32-3.556c1.959,0.119,3.75,2.292,3.566,4.343
			c-0.211,2.422-2.305,4.088-4.625,3.678C847.18,91.321,845.891,89.557,846.201,87.255"/>
		<path fill="#351718" d="M867.994,98.378c0.387-2.354,2.176-3.798,4.328-3.497c2.467,0.347,3.838,2.293,3.404,4.845
			c-0.359,2.144-2.414,3.635-4.564,3.248C869.32,102.645,867.518,100.888,867.994,98.378"/>
		<path fill="#351718" d="M748.248,92.428c0.273-2.624,2.775-3.729,4.4-3.536c2.379,0.286,3.875,2.411,3.418,4.894
			c-0.396,2.183-2.465,3.651-4.59,3.275C749.371,96.688,747.92,94.604,748.248,92.428"/>
		<path fill="#351718" d="M816.096,83.011c-0.479,2.381-2.6,3.694-5.008,3.112c-2.07-0.502-3.418-2.684-2.938-4.753
			c0.41-1.738,2.295-3.429,4.77-2.896C815.156,78.956,816.523,80.859,816.096,83.011"/>
		<path fill="#351718" d="M859.799,77.542c-0.451,2.296-2.264,3.634-4.486,3.32c-2.32-0.328-3.785-2.522-3.309-4.955
			c0.406-2.052,2.629-3.489,4.717-3.01C858.369,73.271,860.387,74.828,859.799,77.542"/>
		<path fill="#351718" d="M724.486,96.866c-2.014-0.293-3.621-2.415-3.42-4.508c0.18-1.94,2.438-3.73,4.445-3.523
			c2.318,0.24,3.994,2.505,3.547,4.79C728.643,95.779,726.658,97.18,724.486,96.866"/>
		<path fill="#351718" d="M837.91,93.971c-0.127,1.537-2.014,3.892-4.404,3.554c-2.227-0.314-3.775-2.058-3.668-4.282
			c0.1-2.111,2.076-3.933,4.156-3.797C836.404,89.606,837.844,91.032,837.91,93.971"/>
		<path fill="#351718" d="M904.434,64.829c0.764,0.088,1.504-0.053,2.164-0.347c-0.008-2.48-0.063-4.952-0.205-7.409
			c-0.369-0.133-0.76-0.238-1.191-0.28c-2.105-0.201-4.074,1.449-4.344,3.633C900.613,62.433,902.365,64.591,904.434,64.829z"/>
		<path fill="#351718" d="M857.063,93.002c0.4-2.337,2.09-3.638,4.398-3.386c2.373,0.26,3.801,2.357,3.318,4.873
			c-0.418,2.186-2.469,3.575-4.602,3.118C857.949,97.132,856.678,95.253,857.063,93.002"/>
		<path fill="#351718" d="M870.652,83.377c-0.342,2.114-2.488,3.718-4.531,3.38c-2.094-0.351-3.631-2.45-3.334-4.572
			c0.344-2.482,2.477-4.095,4.811-3.523C869.695,79.174,871.139,80.952,870.652,83.377"/>
		<path fill="#351718" d="M761.828,82.793c-0.41,2.275-2.232,3.592-4.498,3.256c-2.123-0.316-3.588-2.349-3.266-4.54
			c0.346-2.354,2.658-4.025,4.834-3.506C760.969,78.497,762.23,80.562,761.828,82.793"/>
		<path fill="#351718" d="M848.896,71.945c-0.309,2.322-1.984,3.74-4.238,3.593c-2.229-0.149-3.996-2.442-3.627-4.717
			c0.322-2.009,2.541-3.642,4.535-3.328C847.734,67.829,849.188,69.772,848.896,71.945"/>
		<path fill="#351718" d="M842.822,110.524c-0.387,2.187-2.332,3.608-4.5,3.274c-2.027-0.312-3.613-2.458-3.338-4.534
			c0.293-2.262,2.668-3.932,4.855-3.425C842.051,106.362,843.223,108.206,842.822,110.524"/>
		<path fill="#351718" d="M903.09,72.679c-0.438,2.111-2.498,3.403-4.738,2.97c-2.242-0.428-3.645-2.421-3.221-4.554
			c0.475-2.396,2.691-3.82,5.012-3.228C902.232,68.404,903.531,70.531,903.09,72.679"/>
		<path fill="#351718" d="M818.455,67.466c2.324,0.332,3.627,1.918,3.469,4.334c-0.16,2.405-2.295,3.933-4.74,3.516
			c-2.184-0.369-3.529-2.299-3.166-4.55C814.383,68.482,816.217,67.124,818.455,67.466"/>
		<path fill="#351718" d="M837.945,66.628c-0.447,2.155-2.543,3.535-4.66,3.07c-2.041-0.454-3.449-2.677-3.018-4.759
			c0.453-2.184,2.498-3.7,4.529-3.354C837.105,61.977,838.467,64.149,837.945,66.628"/>
		<path fill="#351718" d="M848.629,99.451c-0.377,2.231-2.328,3.743-4.406,3.372c-2.781-0.491-3.783-3.098-3.35-4.904
			c0.496-2.052,2.617-3.474,4.678-3.111C847.611,95.169,848.994,97.254,848.629,99.451"/>
		<path fill="#351718" d="M852.217,49.073c0.328-2.734,2.268-3.653,4.277-3.57c2.295,0.093,3.98,2.401,3.557,4.763
			c-0.387,2.159-2.438,3.65-4.539,3.301C853.256,53.19,851.906,51.352,852.217,49.073"/>
		<path fill="#351718" d="M904.033,92.021c1.33,0.234,2.555-0.142,3.422-0.93c-0.131-1.373-0.271-2.742-0.414-4.099
			c-0.078-0.754-0.141-1.512-0.199-2.271c-0.348-0.205-0.727-0.372-1.15-0.462c-2.541-0.532-4.395,0.729-4.818,3.281
			C900.492,89.859,901.727,91.61,904.033,92.021z"/>
		<path fill="#351718" d="M900.639,125.46c0.217-0.698,0.463-1.39,0.729-2.063c-0.537-0.482-1.199-0.833-1.947-0.956
			c-2.09-0.343-3.855,0.771-4.408,2.687C896.887,125.291,898.762,125.393,900.639,125.46z"/>
		<path fill="#351718" d="M881.078,88.796c-0.49,2.161-2.598,3.49-4.773,3.01c-2.205-0.492-3.545-2.598-3.031-4.747
			c0.535-2.209,2.537-3.495,4.762-3.055C880.135,84.418,881.561,86.666,881.078,88.796"/>
		<path fill="#351718" d="M898.107,102.973c-2.139-0.397-3.523-2.379-3.219-4.606c0.275-2.02,2.477-3.564,4.602-3.227
			c2.277,0.364,3.795,2.261,3.426,4.405C902.568,101.589,901.039,103.592,898.107,102.973"/>
		<path fill="#351718" d="M835.279,81.888c0.221-2.165,2.189-3.632,4.396-3.347c2.227,0.296,3.729,2.154,3.471,4.313
			c-0.285,2.409-2.396,4.018-4.688,3.574C836.273,86.011,834.949,84.116,835.279,81.888"/>
		<path fill="#351718" d="M849.119,44.923c-0.42,2.217-2.424,3.605-4.611,3.195c-2.264-0.424-3.553-2.278-3.193-4.606
			c0.357-2.263,2.219-3.536,4.592-3.126C848.225,40.789,849.545,42.659,849.119,44.923"/>
		<path fill="#351718" d="M762.391,102.214c-2.26-0.402-3.553-2.209-3.195-4.479c0.373-2.401,2.492-3.837,4.865-3.294
			c2.074,0.472,3.365,2.554,2.93,4.729C766.555,101.376,764.668,102.619,762.391,102.214"/>
		<path fill="#351718" d="M868.113,71.331c0.236-2.199,2.109-3.91,4.182-3.822c2.236,0.094,4.045,2.35,3.76,4.687
			c-0.256,2.095-2.264,3.678-4.428,3.542C869.957,75.632,867.775,73.699,868.113,71.331"/>
		<path fill="#351718" d="M799.941,88.203c-0.336,2.131-2.348,3.607-4.512,3.315c-2.17-0.29-3.668-2.251-3.381-4.434
			c0.318-2.477,2.367-3.996,4.744-3.508C798.992,84.021,800.301,85.951,799.941,88.203"/>
		<path fill="#351718" d="M800.797,80.5c-2.086-0.237-3.645-2.168-3.59-4.36c0.039-1.498,1.957-3.86,4.32-3.605
			c2.469,0.268,4.09,2.221,3.719,4.588C804.898,79.294,802.982,80.751,800.797,80.5"/>
		<path fill="#351718" d="M846.525,59.651c0.406-2.247,2.459-3.615,4.637-3.055c2.34,0.6,3.533,2.533,3.047,4.709
			c-0.482,2.17-2.557,3.551-4.719,3.086C847.748,64.019,845.947,62.435,846.525,59.651"/>
		<path fill="#351718" d="M783.66,93.63c-0.287,2.352-1.971,3.757-4.24,3.54c-2.248-0.217-3.846-2.03-3.68-4.175
			c0.189-2.453,2.18-4.093,4.557-3.766C782.518,89.532,783.932,91.384,783.66,93.63"/>
		<path fill="#351718" d="M849.18,118.948c-2.211-0.397-3.582-2.289-3.242-4.487c0.324-2.118,2.318-3.646,4.428-3.399
			c2.344,0.268,3.844,2.414,3.387,4.816C853.322,118.113,851.471,119.358,849.18,118.948"/>
		<path fill="#351718" d="M770.131,103.085c0.313-2.282,2.16-3.675,4.467-3.366c2.16,0.284,3.713,2.388,3.361,4.526
			c-0.369,2.24-2.342,3.705-4.525,3.361C771.146,107.243,769.807,105.411,770.131,103.085"/>
		<path fill="#351718" d="M882.553,80.884c-2.336-0.287-3.73-1.976-3.502-4.248c0.219-2.243,2.02-3.83,4.162-3.671
			c2.359,0.179,4.098,2.29,3.77,4.573C886.674,79.688,884.734,81.158,882.553,80.884"/>
		<path fill="#351718" d="M835.572,54.453c0.373-2.242,2.303-3.591,4.57-3.188c2.158,0.39,3.596,2.502,3.148,4.644
			c-0.473,2.279-2.367,3.573-4.621,3.159C836.381,58.643,835.17,56.847,835.572,54.453"/>
		<path fill="#351718" d="M770.391,75.83c0.313-2.38,2.064-3.722,4.373-3.354c2.332,0.378,3.76,2.216,3.416,4.403
			c-0.359,2.278-2.168,3.648-4.459,3.371C771.42,79.972,770.084,78.199,770.391,75.83"/>
		<path fill="#351718" d="M786.752,97.728c0.432-2.244,2.273-3.492,4.598-3.105c2.461,0.398,3.732,2.399,3.154,4.953
			c-0.473,2.079-2.693,3.427-4.785,2.9C787.572,101.936,786.32,99.938,786.752,97.728"/>
		<path fill="#351718" d="M784.172,86.132c-2.094-0.438-3.457-2.59-3-4.733c0.479-2.249,2.383-3.573,4.578-3.177
			c2.428,0.435,3.766,2.513,3.207,4.973C788.479,85.277,786.348,86.59,784.172,86.132"/>
		<path fill="#351718" d="M810.846,93.752c-0.248,2.235-2.164,3.763-4.398,3.513c-2.387-0.267-3.807-1.985-3.557-4.302
			c0.244-2.268,2.117-3.822,4.338-3.587C809.393,89.603,811.08,91.639,810.846,93.752"/>
		<path fill="#351718" d="M811.037,113.524c-2.135-0.44-3.471-2.573-2.998-4.781c0.465-2.166,2.615-3.521,4.77-3.006
			c2.164,0.518,3.57,2.73,3.029,4.778C815.254,112.706,813.229,113.975,811.037,113.524"/>
		<path fill="#351718" d="M732.039,97.438c0.363-2.083,2.594-3.599,4.705-3.199c2.184,0.41,3.676,2.528,3.268,4.629
			c-0.438,2.255-2.359,3.546-4.666,3.142C733.107,101.622,731.654,99.613,732.039,97.438"/>
		<path fill="#351718" d="M772.723,88.361c-0.52,2.248-2.414,3.371-4.795,2.843c-2.096-0.467-3.463-2.719-2.924-4.818
			c0.525-2.055,2.809-3.402,4.889-2.881C772.064,84.047,773.244,86.08,772.723,88.361"/>
		<path fill="#351718" d="M903.221,119.229c1.297-2.687,2.6-4.907,3.426-7.157c-0.445-0.253-0.957-0.434-1.521-0.521
			c-2.34-0.363-4.123,0.905-4.482,3.188C900.301,116.91,901.316,118.628,903.221,119.229z"/>
		<path fill="#351718" d="M751.004,76.76c-0.268,1.938-1.584,3.31-3.361,3.499c-1.947,0.205-3.865-1.096-4.359-2.964
			c-0.445-1.679,0.352-3.717,1.785-4.591c1.264-0.767,3.287-0.663,4.529,0.236C750.74,73.761,751.23,75.101,751.004,76.76"/>
		<path fill="#351718" d="M824.799,103.329c0.406-2.608,2.559-3.592,4.436-3.349c2.283,0.289,3.818,2.6,3.307,4.926
			c-0.467,2.118-2.605,3.507-4.682,3.05C825.607,107.459,824.383,105.609,824.799,103.329"/>
		<path fill="#351718" d="M865.176,66.525c-0.25,1.815-1.883,3.59-4.529,3.189c-2.262-0.337-3.703-2.216-3.359-4.395
			c0.355-2.261,2.213-3.776,4.334-3.536C864.031,62.058,865.545,64.081,865.176,66.525"/>
		<path fill="#351718" d="M741.053,91.137c-2.148-0.394-3.5-2.391-3.102-4.593c0.396-2.191,2.373-3.639,4.492-3.285
			c2.346,0.391,3.883,2.656,3.326,4.907C745.236,90.325,743.307,91.546,741.053,91.137"/>
		<path fill="#351718" d="M859.549,104.767c-0.402,2.326-2.229,3.671-4.512,3.318c-2.143-0.337-3.605-2.41-3.264-4.616
			c0.324-2.125,2.473-3.686,4.576-3.328C858.553,100.519,859.934,102.518,859.549,104.767"/>
		<path fill="#351718" d="M870.404,110.684c-0.377,2.263-2.209,3.592-4.502,3.258c-2.115-0.313-3.705-2.409-3.402-4.489
			c0.336-2.303,2.709-4.018,4.887-3.461C869.492,106.526,870.828,108.163,870.404,110.684"/>
		<path fill="#351718" d="M889.971,82.011c0.357-2.165,2.367-3.558,4.563-3.165c2.078,0.374,3.672,2.581,3.301,4.562
			c-0.402,2.134-2.432,3.695-4.479,3.443C890.938,86.555,889.547,84.567,889.971,82.011"/>
		<path fill="#351718" d="M883.4,100.382c2.334,0.398,3.648,2.2,3.287,4.525c-0.359,2.288-2.209,3.59-4.531,3.313
			c-2.461-0.289-3.633-2.834-3.314-4.556C879.254,101.411,881.168,99.996,883.4,100.382"/>
		<path fill="#351718" d="M745.975,60.565c-0.35,1.097-0.926,2.023-1.965,2.596c-2.229,1.227-3.252,1.18-4.902-0.958
			c-0.381-0.491-0.627-1.101-0.855-1.687c-0.311-0.791-0.229-1.582,0.318-2.248c0.402-0.492,0.832-0.979,1.336-1.352
			c0.906-0.675,1.934-1.304,3.088-0.823c1.732,0.724,2.813,2.048,2.984,3.99C745.988,60.243,745.975,60.404,745.975,60.565"/>
		<path fill="#351718" d="M889.725,109.352c0.365-2.124,2.424-3.599,4.525-3.241c2.137,0.365,3.586,2.363,3.32,4.492
			c-0.326,2.659-2.865,3.851-4.83,3.419C890.975,113.632,889.197,111.912,889.725,109.352"/>
		<path fill="#351718" d="M887.182,124.932c-2.363-0.38-3.629-2.151-3.246-4.523c0.369-2.277,2.283-3.696,4.518-3.352
			c2.063,0.316,3.674,2.539,3.348,4.615C891.449,123.87,889.434,125.294,887.182,124.932"/>
		<path fill="#351718" d="M784.748,58.886c-0.35-0.149-0.824-0.268-1.203-0.533c-1.383-0.97-2.379-2.286-2.164-4.012
			c0.213-1.75,1.617-2.666,3.17-3.271c0.963-0.375,1.877-0.219,2.68,0.457c0.242,0.204,0.471,0.433,0.676,0.678
			c2.254,2.721,1.793,4.926-2.104,6.546C785.52,58.863,785.172,58.834,784.748,58.886"/>
		<path fill="#351718" d="M863.131,54.8c0.602-2.181,2.211-3.691,4.525-3.337c1.965,0.302,3.498,2.728,3.098,4.706
			c-0.35,1.729-2.449,3.298-4.268,3.188C864.637,59.237,862.771,56.712,863.131,54.8"/>
		<path fill="#351718" d="M713.252,71.167c-0.201,0.515-0.273,0.841-0.447,1.091c-0.268,0.393-0.566,0.776-0.922,1.089
			c-2.664,2.347-4.922,1.921-6.508-2.011c-0.309-0.77-0.127-1.571,0.357-2.272c0.182-0.262,0.332-0.558,0.563-0.771
			c2.346-2.207,4.699-2.033,6.252,0.826C712.918,69.797,713.063,70.596,713.252,71.167"/>
		<path fill="#351718" d="M813.877,97.962c0.34-2.255,2.135-3.511,4.484-3.139c2.191,0.346,3.764,2.388,3.385,4.403
			c-0.406,2.144-2.387,3.718-4.412,3.506C814.965,102.484,813.504,100.464,813.877,97.962"/>
		<path fill="#351718" d="M806.477,69.469c-1.842-0.3-3.572-2.794-3.23-4.654c0.346-1.904,2.924-3.613,4.697-3.115
			c1.764,0.501,3.268,2.642,3.057,4.347C810.779,67.845,808.246,69.758,806.477,69.469"/>
		<path fill="#351718" d="M898.457,48.415c-1.674-0.771-2.738-2.05-3.035-3.923c-0.027-0.154-0.018-0.316-0.002-0.478
			c0.17-1.776,2.717-3.785,4.486-3.491c0.977,0.164,1.719,0.782,2.318,1.535c1.57,1.985,1.131,4.409-1.051,5.678
			c-0.531,0.313-1.162,0.488-1.764,0.663C899.131,48.485,898.801,48.412,898.457,48.415"/>
		<path fill="#351718" d="M787.035,70.784c0.273-2.134,2.324-3.748,4.408-3.47c2.002,0.264,3.59,2.504,3.246,4.576
			c-0.295,1.81-2.291,3.383-4.146,3.272C788.549,75.046,786.771,72.821,787.035,70.784"/>
		<path fill="#351718" d="M716.176,75.667c0.307-1.154,0.82-2.143,1.824-2.764c0.547-0.334,1.16-0.564,1.762-0.768
			c0.625-0.219,1.258-0.119,1.844,0.226c1.498,0.888,2.17,2.29,2.455,3.936c0.027,0.154,0.037,0.327,0.004,0.478
			c-0.289,1.476-2.15,3.045-3.805,3.23c-1.625,0.177-3.387-1.161-3.857-2.949C716.283,76.593,716.246,76.109,716.176,75.667"/>
		<path fill="#351718" d="M779.295,69.304c-1.609-0.528-2.641-1.688-3.031-3.357c-0.326-1.39,0.248-2.524,1.322-3.387
			c2.063-1.663,4.375-1.262,5.703,1.012c0.314,0.542,0.467,1.189,0.613,1.81c0.072,0.291,0.035,0.659-0.086,0.936
			c-0.668,1.57-1.809,2.62-3.5,2.987C780.01,69.37,779.678,69.307,779.295,69.304"/>
		<path fill="#351718" d="M659.9,63.382c-0.301-0.099-0.646-0.138-0.891-0.311c-0.512-0.377-1.037-0.766-1.432-1.256
			c-0.818-1.021-1.461-2.184-0.85-3.523c0.697-1.541,1.887-2.599,3.65-2.691c0.592-0.032,1.273,0.184,1.797,0.487
			c1.162,0.681,1.799,1.787,2.01,3.11c0.045,0.306,0.035,0.641-0.02,0.949C663.852,61.81,661.656,63.467,659.9,63.382"/>
		<path fill="#351718" d="M658.93,71.096c-0.15,0.331-0.32,0.778-0.551,1.189c-0.584,1.039-1.553,1.594-2.648,1.902
			c-1.174,0.334-2.217-0.001-3.078-0.849c-0.816-0.811-1.297-1.817-1.504-2.939c-0.057-0.3-0.066-0.68,0.072-0.928
			c0.814-1.447,1.91-2.578,3.635-2.842c0.447-0.072,0.98-0.007,1.393,0.183c1.379,0.628,2.303,1.688,2.607,3.212
			C658.914,70.333,658.9,70.657,658.93,71.096"/>
		<path fill="#351718" d="M868.436,43.551c0.518-1.48,1.592-2.375,3.025-2.903c1.068-0.4,2.334-0.137,3.117,0.692
			c0.787,0.836,1.389,1.796,1.6,2.929c0.082,0.437,0.018,1.006-0.207,1.377c-0.779,1.26-1.83,2.267-3.344,2.586
			c-0.445,0.094-0.996,0.101-1.395-0.081c-1.563-0.709-2.557-1.913-2.813-3.649C868.375,44.193,868.428,43.866,868.436,43.551"/>
		<path fill="#351718" d="M795.566,64.125c-0.365-0.156-0.861-0.269-1.232-0.542c-0.938-0.678-1.59-1.573-1.898-2.712
			c-0.229-0.827-0.168-1.596,0.326-2.297c0.273-0.387,0.574-0.783,0.939-1.084c2.244-1.873,4.15-1.593,5.604,0.817
			c0.33,0.542,0.553,1.161,0.754,1.764c0.1,0.288,0.148,0.677,0.029,0.936c-0.697,1.527-1.811,2.632-3.471,3.068
			C796.309,64.153,795.973,64.107,795.566,64.125"/>
		<path fill="#351718" d="M735.682,74.694c-1.996-0.343-3.75-2.84-3.277-4.653c0.465-1.774,2.633-3.283,4.41-3.073
			c1.895,0.231,3.691,2.822,3.238,4.682C739.6,73.508,737.461,74.998,735.682,74.694"/>
		<path fill="#351718" d="M681.672,74.411c-1.785-0.159-3.441-2.188-3.33-4.083c0.102-1.774,2.031-3.474,3.986-3.477
			c1.609-0.001,3.912,2.077,3.525,4.366C685.539,73.091,683.607,74.582,681.672,74.411"/>
		<path fill="#351718" d="M828.229,53.339c-0.279-0.131-0.598-0.219-0.85-0.404c-0.916-0.668-1.576-1.548-2.029-2.594
			c-0.418-0.969-0.338-1.873,0.324-2.681c0.402-0.487,0.826-0.976,1.314-1.369c1.729-1.388,3.76-1.106,4.939,0.719
			c0.428,0.656,0.732,1.412,0.959,2.159c0.123,0.43,0.121,1.004-0.074,1.389c-0.855,1.65-2.209,2.667-4.107,2.851
			C828.553,53.423,828.391,53.364,828.229,53.339"/>
		<path fill="#351718" d="M876.588,64.626c-0.729-0.519-1.668-0.935-2.203-1.651c-0.535-0.725-0.697-1.747-0.953-2.659
			c-0.07-0.268,0.01-0.684,0.184-0.902c0.594-0.738,1.152-1.585,1.92-2.076c1.08-0.687,2.279-1.053,3.572-0.174
			c1.453,0.985,2.365,2.269,2.117,3.99c-0.219,1.45-1.061,2.677-2.633,3.108C877.988,64.432,877.346,64.491,876.588,64.626"/>
		<path fill="#351718" d="M692.553,79.851c-0.314-0.112-0.65-0.16-0.896-0.339c-0.518-0.366-1.051-0.743-1.469-1.212
			c-1.729-1.951-1.277-4.31,1.08-5.579c0.545-0.3,1.184-0.503,1.805-0.583c0.439-0.055,0.943,0.1,1.365,0.284
			c0.914,0.392,1.521,1.146,2.025,1.979c0.879,1.459,0.52,3.189-0.863,4.264C694.688,79.366,693.709,79.851,692.553,79.851"/>
		<path fill="#351718" d="M675.145,65.423c-0.115,0.298-0.182,0.824-0.465,1.168c-2.5,2.97-4.932,3.021-6.777-0.221
			c-0.82-1.444-0.693-2.745,0.443-3.902c0.223-0.226,0.432-0.466,0.686-0.657c1.055-0.804,2.191-1.377,3.518-0.732
			C674.27,61.91,675.313,63.659,675.145,65.423"/>
		<path fill="#351718" d="M669.848,76.685c-0.225,0.37-0.438,1.034-0.889,1.423c-0.707,0.608-1.527,1.113-2.375,1.52
			c-0.949,0.452-1.85,0.176-2.615-0.531c-0.23-0.213-0.467-0.432-0.66-0.681c-2.055-2.61-1.646-4.145,0.906-5.917
			c1.223-0.855,2.828-0.737,3.969,0.226C669.332,73.698,669.959,74.923,669.848,76.685"/>
		<path fill="#351718" d="M748.666,64.629c0.289-1.805,2.299-3.503,4.154-3.38c0.604,0.043,1.338,0.297,1.738,0.715
			c2.818,2.929,2.348,5.058-0.988,6.9c-0.727,0.399-1.572,0.396-2.334,0.029c-1.398-0.669-2.238-1.802-2.566-3.307
			C748.604,65.283,748.666,64.95,748.666,64.629"/>
		<path fill="#351718" d="M882.695,53.485c-1.984-0.252-3.74-2.641-3.309-4.561c0.107-0.452,0.34-0.906,0.613-1.283
			c0.793-1.089,1.924-1.68,3.225-1.874c0.426-0.065,0.988,0.058,1.338,0.305c0.641,0.454,1.254,1.001,1.732,1.621
			c0.92,1.204,0.967,2.552,0.338,3.556C885.713,52.708,884.488,53.594,882.695,53.485"/>
		<path fill="#351718" d="M643.316,68.502c-0.324-0.176-0.773-0.355-1.154-0.644c-0.789-0.591-1.279-1.396-1.604-2.336
			c-0.334-0.983-0.266-1.85,0.379-2.705c0.697-0.937,1.584-1.564,2.67-1.938c0.805-0.27,1.582-0.196,2.27,0.327
			c0.379,0.288,0.762,0.592,1.068,0.951c0.867,1.019,1.48,2.2,0.992,3.521c-0.59,1.604-1.826,2.599-3.557,2.877
			C644.078,68.602,643.754,68.524,643.316,68.502"/>
		<path fill="#351718" d="M822.721,64.327c-1.77-0.157-3.689-2.764-3.357-4.57c0.338-1.878,2.213-3.377,4.109-3.297
			c2.041,0.083,3.76,2.117,3.604,4.265C826.932,62.707,824.76,64.502,822.721,64.327"/>
		<path fill="#351718" d="M833.84,42.153c-1.781-0.219-3.381-2.255-3.262-4.163c0.113-1.736,2.203-3.448,4.078-3.327
			c2.033,0.13,3.846,2.429,3.463,4.397C837.758,40.895,835.709,42.38,833.84,42.153"/>
		<path fill="#351718" d="M616.352,68.166c-1.918-0.43-3.197-2.393-2.822-4.349c0.365-1.951,2.285-3.339,4.188-3.035
			c2.064,0.335,3.625,2.688,3.078,4.637C620.262,67.321,618.223,68.585,616.352,68.166"/>
		<path fill="#351718" d="M800.732,53.029c-0.293-0.113-0.619-0.188-0.883-0.358c-1.115-0.729-1.813-1.777-2.197-3.042
			c-0.33-1.069,0.234-2.348,1.475-3.28c1.455-1.099,2.994-1.344,3.99-0.627c0.256,0.19,0.516,0.387,0.734,0.611
			c1.039,1.074,1.908,2.284,1.381,3.847c-0.549,1.646-1.887,2.525-3.555,2.88C801.381,53.124,801.051,53.044,800.732,53.029"/>
		<path fill="#351718" d="M637.82,79.454c-0.402-0.188-1.025-0.375-1.523-0.741c-0.926-0.681-1.467-1.657-1.631-2.8
			c-0.063-0.45-0.049-0.967,0.109-1.383c0.48-1.234,1.354-2.127,2.605-2.604c1.877-0.716,4.217,0.7,4.674,2.843
			C642.658,77.598,640.271,79.468,637.82,79.454"/>
		<path fill="#351718" d="M648.363,85.21c-0.318-0.178-0.924-0.416-1.402-0.813c-0.754-0.611-1.236-1.435-1.52-2.379
			c-0.248-0.825-0.141-1.605,0.359-2.271c0.369-0.502,0.842-0.967,1.355-1.327c1.941-1.354,3.494-1.104,4.988,0.739
			c0.852,1.055,1.314,2.235,0.725,3.543c-0.721,1.573-2.006,2.424-3.746,2.564C648.965,85.279,648.811,85.243,648.363,85.21"/>
		<path fill="#351718" d="M697.537,96.561c-1.832-0.223-3.389-2.196-3.27-4.148c0.131-2.11,2.238-3.799,4.365-3.495
			c1.889,0.266,3.393,2.111,3.354,4.108C701.949,94.84,699.477,96.802,697.537,96.561"/>
		<path fill="#351718" d="M736.156,47.424c-1.709-0.078-3.387-2.049-3.408-4.023c-0.025-1.841,1.852-3.585,3.781-3.52
			c2.234,0.077,4.004,1.99,3.656,4.13C739.842,46.128,738.35,47.213,736.156,47.424"/>
		<path fill="#351718" d="M790.141,47.767c-0.336-0.203-1.012-0.424-1.387-0.885c-0.594-0.734-1.049-1.6-1.436-2.475
			c-0.26-0.591-0.129-1.261,0.209-1.851c0.66-1.168,1.625-1.991,2.863-2.471c0.982-0.38,1.92-0.162,2.68,0.539
			c0.473,0.43,0.891,0.937,1.221,1.483c0.592,0.98,1.078,2.046,0.434,3.179c-0.836,1.478-2.049,2.466-3.836,2.541
			C790.732,47.839,790.57,47.804,790.141,47.767"/>
		<path fill="#351718" d="M707.875,54.764c-0.223,1.48-1.574,3.612-3.945,3.581c-1.896-0.023-3.543-1.823-3.541-3.87
			c-0.004-2.19,1.986-4.058,4.102-3.782C706.83,50.998,707.658,52.712,707.875,54.764"/>
		<path fill="#351718" d="M757.361,58.64c-1.523-0.48-3.014-2.352-3.029-3.997c-0.004-0.602,0.211-1.305,0.561-1.787
			c0.785-1.062,1.916-1.722,3.215-1.966c0.43-0.083,1.027-0.027,1.352,0.221c0.75,0.572,1.471,1.238,2.055,1.984
			c0.932,1.191,0.74,2.899-0.299,3.966c-0.807,0.836-1.76,1.398-2.91,1.581C757.996,58.691,757.676,58.642,757.361,58.64"/>
		<path fill="#351718" d="M768.578,63.87c-0.711-0.091-1.393-0.479-1.969-1.064c-2.057-2.101-1.779-4.543,0.709-5.952
			c0.547-0.308,1.178-0.525,1.799-0.616c0.432-0.067,0.963,0.045,1.361,0.253c1.174,0.616,2.033,1.581,2.393,2.857
			c0.16,0.574,0.145,1.294-0.049,1.856C772.283,62.819,770.301,64.038,768.578,63.87"/>
		<path fill="#351718" d="M672.627,80.944c0.334-1.942,2.314-3.453,4.184-3.197c2.012,0.272,3.723,2.781,3.188,4.666
			c-0.539,1.902-2.656,3.289-4.449,2.916C673.666,84.934,672.293,82.879,672.627,80.944"/>
		<path fill="#351718" d="M762.488,74.804c-1.549-0.343-2.721-1.7-2.973-3.421c-0.207-1.363,0.604-2.981,1.883-3.624
			c0.564-0.286,1.199-0.493,1.82-0.589c0.441-0.069,0.969,0.009,1.369,0.209c0.566,0.279,1.119,0.665,1.563,1.115
			c0.998,1.029,1.303,2.989,0.699,4.025C765.822,74.301,764.154,75.173,762.488,74.804"/>
		<path fill="#351718" d="M817.549,47.88c-1.822-0.284-3.275-2.262-3.135-4.273c0.139-2,2.592-3.774,4.557-3.296
			c1.896,0.465,3.195,2.511,2.807,4.442C821.389,46.702,819.408,48.167,817.549,47.88"/>
		<path fill="#351718" d="M659.609,90.604c-0.299-0.106-0.621-0.176-0.893-0.329c-0.994-0.577-1.717-1.384-2.164-2.46
			c-0.477-1.137-0.422-2.202,0.445-3.104c0.545-0.563,1.156-1.11,1.836-1.475c1.314-0.697,2.926-0.323,3.896,0.826
			c0.4,0.481,0.762,1.027,1.02,1.598c0.5,1.105,0.328,2.168-0.432,3.13c-0.725,0.911-1.668,1.468-2.768,1.771
			C660.252,90.642,659.922,90.595,659.609,90.604"/>
		<path fill="#351718" d="M713.988,63.628c-0.555-0.305-1.314-0.586-1.906-1.078c-1.119-0.929-1.686-2.87-1.262-3.841
			c0.793-1.815,2.252-2.87,4.01-2.809c1.197,0.043,2.047,0.75,2.709,1.68c0.912,1.288,0.951,2.663,0.213,4.025
			C716.986,62.998,715.625,63.409,713.988,63.628"/>
		<path fill="#351718" d="M775.039,45.285c1.879,0.329,3.365,2.281,3.109,4.21c-0.287,2.121-2.268,3.682-4.525,3.201
			c-1.857-0.396-3.248-2.378-2.83-4.37C771.182,46.445,773.227,44.964,775.039,45.285"/>
		<path fill="#351718" d="M816.197,55.546c-0.133,0.313-0.264,0.786-0.508,1.184c-0.621,0.974-1.514,1.632-2.604,2.005
			c-0.799,0.266-1.57,0.216-2.295-0.224c-1.156-0.69-1.867-1.721-2.242-2.995c-0.246-0.812-0.104-1.577,0.377-2.27
			c0.182-0.259,0.383-0.518,0.613-0.73c1.113-1.001,2.369-1.793,3.887-1.222c1.619,0.602,2.488,1.932,2.754,3.634
			C816.203,55.082,816.188,55.244,816.197,55.546"/>
		<path fill="#351718" d="M746.721,52.633c-1.859-0.347-3.408-2.475-3.123-4.282c0.313-1.995,2.863-3.718,4.709-3.188
			c1.846,0.531,3.203,2.719,2.818,4.536C750.725,51.554,748.59,52.981,746.721,52.633"/>
		<path fill="#351718" d="M703.447,85.794c-0.162-0.025-0.336-0.011-0.475-0.082c-1.682-0.854-2.875-2.108-2.945-4.072
			c-0.021-0.593,0.236-1.302,0.602-1.773c0.471-0.618,1.121-1.158,1.805-1.547c1.467-0.841,3.252-0.379,4.271,1.02
			c0.281,0.387,0.51,0.817,0.715,1.254c0.633,1.324,0.398,2.439-0.617,3.522c-0.689,0.719-1.49,1.229-2.408,1.554
			C704.1,85.77,703.76,85.755,703.447,85.794"/>
		<path fill="#351718" d="M645.688,53.737c0.154-1.84,2.049-3.395,4.023-3.307c1.926,0.086,3.508,1.834,3.463,3.832
			c-0.047,2.144-2.027,3.793-4.207,3.491C646.508,57.422,645.723,55.42,645.688,53.737"/>
		<path fill="#351718" d="M686.363,90.786c-1.588-0.492-2.938-2.303-2.965-4.004c-0.004-0.831,0.293-1.563,0.855-2.173
			c0.664-0.722,1.473-1.185,2.422-1.472c0.834-0.257,1.574-0.113,2.256,0.371c1.375,0.979,2.439,2.293,2.107,4.012
			c-0.365,1.896-1.857,2.897-3.73,3.267C687.002,90.848,686.676,90.785,686.363,90.786"/>
		<path fill="#351718" d="M627.238,74.099c-1.881-0.38-3.24-2.427-2.902-4.377c0.348-1.948,2.322-3.445,4.201-3.182
			c1.969,0.277,3.689,2.831,3.162,4.699C631.166,73.138,629.084,74.469,627.238,74.099"/>
		<path fill="#351718" d="M636.984,59.715c-0.146,1.92-2.094,3.577-3.996,3.395c-1.982-0.188-3.494-1.923-3.465-3.959
			c0.039-2.024,2.287-3.947,4.316-3.677C635.674,55.713,637.133,57.686,636.984,59.715"/>
		<path fill="#351718" d="M894.779,51.603c1.951,0.401,3.605,2.971,3.066,4.748c-0.59,1.905-2.551,3.324-4.318,3.113
			c-1.916-0.224-3.635-2.564-3.359-4.568C890.428,52.978,892.9,51.219,894.779,51.603"/>
		<path fill="#351718" d="M669.635,49.24c-0.287,1.656-1.168,2.576-2.508,2.885c-1.295,0.303-2.605,0.096-3.543-0.962
			c-0.406-0.454-0.672-1.08-0.848-1.673c-0.123-0.437-0.037-0.952,0.027-1.428c0.406-2.844,2.688-4.052,5.303-2.764
			c1.092,0.544,1.604,1.55,1.689,2.739C669.785,48.513,669.658,48.995,669.635,49.24"/>
		<path fill="#351718" d="M779.744,41.668c-0.924-0.104-1.734-0.486-2.436-1.245c-1.145-1.233-0.701-4.569,1.031-5.555
			c1.428-0.801,3.867-0.414,4.803,0.896c0.268,0.374,0.479,0.849,0.527,1.303c0.072,0.628,0.025,1.28-0.082,1.904
			C783.223,41.054,781.904,41.977,779.744,41.668"/>
		<path fill="#351718" d="M716.641,48.102c0.365-1.889,2.387-3.3,4.279-2.994s3.422,2.287,3.055,4.186
			c-0.508,2.607-2.373,3.544-4.48,3.118C717.52,52.012,716.268,50.004,716.641,48.102"/>
		<path fill="#351718" d="M724.738,68.875c-0.336-0.144-0.814-0.272-1.199-0.531c-1.117-0.751-1.824-1.826-1.99-3.142
			c-0.074-0.584,0.072-1.316,0.393-1.805c0.816-1.258,2.082-1.982,3.545-2.252c0.424-0.076,0.967,0.097,1.344,0.334
			c0.529,0.332,1.002,0.79,1.426,1.261c0.898,1.02,1.393,2.201,0.793,3.526c-0.707,1.566-1.971,2.473-3.719,2.634
			C725.178,68.913,725.016,68.888,724.738,68.875"/>
		<path fill="#351718" d="M712.83,43.958c-0.541,3.049-3.711,4.168-5.93,2.272c-0.617-0.527-1.041-1.259-1.01-2.094
			c0.027-0.797,0.154-1.604,0.357-2.372c0.311-1.176,1.695-2.1,2.967-1.995c0.631,0.05,1.268,0.187,1.869,0.386
			c0.977,0.32,1.842,1.582,1.842,2.597C712.92,43.227,712.85,43.706,712.83,43.958"/>
		<path fill="#351718" d="M621.467,85.079c-1.715-0.346-3.285-2.638-2.998-4.39c0.301-1.836,2.387-3.432,4.201-3.214
			c1.975,0.243,3.684,2.692,3.225,4.623C625.486,83.836,623.137,85.409,621.467,85.079"/>
		<path fill="#351718" d="M599.961,73.874c-1.955-0.204-3.42-2.08-3.195-4.093c0.227-1.999,2.029-3.599,3.938-3.49
			c1.971,0.107,3.789,2.431,3.492,4.452C603.924,72.594,601.922,74.076,599.961,73.874"/>
		<path fill="#351718" d="M676.006,58.005c-1.959-0.271-3.391-2.152-3.137-4.128c0.246-1.925,2.104-3.544,3.98-3.467
			c1.922,0.082,3.646,2.408,3.35,4.525C679.924,56.854,677.982,58.28,676.006,58.005"/>
		<path fill="#351718" d="M572.631,73.365c-0.396-0.121-0.861-0.231-1.293-0.419c-0.777-0.337-1.225-0.988-1.414-1.791
			c-0.275-1.125-0.104-2.223,0.449-3.222c0.484-0.874,1.27-1.403,2.281-1.503c0.311-0.034,0.633,0.026,0.945,0.05
			c3.125,0.196,4.111,2.795,2.813,5.543c-0.42,0.881-1.258,1.421-2.305,1.445C573.639,73.481,573.168,73.407,572.631,73.365"/>
		<path fill="#351718" d="M734.809,55.159c-0.313,1.923-2.219,3.392-4.111,3.172c-1.98-0.231-3.689-2.628-3.256-4.562
			c0.412-1.826,2.506-3.157,4.391-2.804C733.809,51.336,735.133,53.198,734.809,55.159"/>
		<path fill="#351718" d="M638.225,51.87c-2.09-0.277-3.383-1.973-3.098-4.044c0.289-2.074,2.016-3.385,4.094-3.012
			c2.133,0.394,2.941,1.755,2.879,3.76C642.041,50.64,640.201,52.135,638.225,51.87"/>
		<path fill="#351718" d="M749.248,37.234c0.477-2.695,3.072-3.895,5.449-2.483c0.865,0.518,1.412,1.355,1.445,2.362
			c0.025,0.788-0.102,1.601-0.295,2.367c-0.309,1.235-1.621,2.128-2.893,2.059c-0.16-0.006-0.316-0.035-0.477-0.04
			C749.766,41.358,748.76,39.246,749.248,37.234"/>
		<path fill="#351718" d="M583.385,78.686c-1.762-0.354-2.805-1.638-2.609-3.37c0.09-0.764,0.32-1.569,0.697-2.226
			c0.293-0.501,0.879-0.997,1.428-1.15c1.248-0.353,2.521-0.11,3.666,0.508c0.383,0.208,0.715,0.634,0.92,1.037
			c0.721,1.393,0.494,2.794-0.311,4.045c-0.756,1.186-1.953,1.532-3.32,1.23C583.699,78.725,583.541,78.71,583.385,78.686"/>
		<path fill="#351718" d="M692.754,52.308c-1.908-0.165-3.371-2.017-3.189-4.03c0.174-1.989,1.947-3.505,3.914-3.341
			c2.178,0.177,3.842,2.229,3.473,4.28C696.613,51.128,694.777,52.479,692.754,52.308"/>
		<path fill="#351718" d="M767.25,44.461c-0.369,1.886-2.33,3.205-4.307,2.901c-1.93-0.296-3.373-2.201-3.107-4.118
			c0.283-2.126,2.498-3.64,4.518-3.089C766.348,40.702,767.619,42.586,767.25,44.461"/>
		<path fill="#351718" d="M697.723,68.536c-1.898-0.307-3.35-2.287-3.072-4.186c0.275-1.88,2.252-3.423,4.123-3.217
			c2.025,0.226,3.738,2.556,3.324,4.523C701.719,67.472,699.631,68.844,697.723,68.536"/>
		<path fill="#351718" d="M615.057,76.004c-0.174,1.89-2.035,3.333-4.072,3.159c-1.91-0.16-3.5-2.026-3.354-3.946
			c0.143-1.903,1.9-3.474,3.895-3.476C613.523,71.733,615.258,73.836,615.057,76.004"/>
		<path fill="#351718" d="M683.777,59.168c0.178-1.888,2.113-3.466,4.006-3.271c1.955,0.204,3.537,2.017,3.436,3.927
			c-0.113,2.028-2.27,3.77-4.34,3.508C685.031,63.09,683.59,61.155,683.777,59.168"/>
		<path fill="#351718" d="M726.344,34.42c2.146,0.304,3.049,2.057,2.738,3.831c-0.406,2.274-2.01,3.373-4.178,2.909
			c-1.953-0.416-2.988-1.853-2.746-3.879C722.41,35.151,724.055,34.025,726.344,34.42"/>
		<path fill="#351718" d="M820.063,32.381c0.307-1.454,1.959-2.948,3.398-2.929c0.6,0.007,1.313,0.191,1.77,0.557
			c0.604,0.48,1.076,1.173,1.477,1.854c0.643,1.098,0.326,2.677-0.693,3.477c-0.619,0.483-1.32,0.913-2.047,1.214
			c-0.406,0.169-0.967,0.138-1.41,0.016C820.992,36.131,819.729,33.944,820.063,32.381"/>
		<path fill="#351718" d="M860.885,41.98c-0.309-0.085-0.777-0.179-1.225-0.338c-1.025-0.369-1.814-1.525-1.801-2.569
			c0.043-2.9,1.279-5.086,5.328-3.719c1.434,0.485,2.025,1.969,1.643,4c-0.311,1.64-1.439,2.715-2.838,2.703
			C861.676,42.054,861.361,42.015,860.885,41.98"/>
		<path fill="#351718" d="M685.672,43.835c-0.395,3.204-3.592,3.635-5.451,2.364c-1.125-0.767-1.711-2.353-1.318-3.845
			c0.348-1.328,1.377-2.253,2.693-2.422c0.16-0.019,0.32-0.053,0.482-0.055C684.213,39.82,686.178,41.184,685.672,43.835"/>
		<path fill="#351718" d="M593.549,65.074c-0.059,0.208-0.131,0.691-0.326,1.112c-0.514,1.082-1.373,1.803-2.58,1.825
			c-0.775,0.013-1.563-0.235-2.336-0.389c-0.143-0.022-0.279-0.138-0.406-0.227c-1.158-0.853-1.447-2.016-1.252-3.379
			c0.193-1.325,0.609-2.521,2-2.981c0.578-0.187,1.258-0.213,1.863-0.132C592.855,61.2,593.914,62.586,593.549,65.074"/>
		<path fill="#351718" d="M619.037,53.218c0.426-2.169,2.018-3.119,4.336-2.591c1.859,0.422,2.777,2.009,2.365,4.092
			c-0.365,1.862-2.072,3.083-3.889,2.787C620.252,57.243,618.428,55.686,619.037,53.218"/>
		<path fill="#351718" d="M806.021,41.483c-1.17-0.351-2.41-1.373-2.154-3.286c0.408-3.06,2.189-4.224,5.031-3.192
			c1.232,0.442,2.063,1.699,1.973,2.993C810.656,41.112,809.041,42.275,806.021,41.483"/>
		<path fill="#351718" d="M885.215,37.557c-0.014,0.04,0.051-0.459,0.264-0.882c0.371-0.751,1.002-1.269,1.832-1.429
			c1.135-0.227,2.242-0.031,3.281,0.476c0.771,0.38,1.242,1.077,1.398,1.869c0.217,1.124,0.057,2.274-0.584,3.245
			c-0.551,0.837-1.383,1.372-2.426,1.366c-0.633-0.001-1.285-0.109-1.896-0.278c-1.258-0.344-2.15-1.604-2.096-2.898
			C884.996,38.706,885.084,38.387,885.215,37.557"/>
		<path fill="#351718" d="M606.818,55.853c2.037,0.313,3.074,1.703,2.775,3.734c-0.338,2.313-1.84,3.44-4.016,3.03
			c-1.92-0.367-3.049-1.855-2.852-3.807C602.914,56.968,604.395,55.369,606.818,55.853"/>
		<path fill="#351718" d="M768.969,36.217c-1.781-0.025-3.541-2.545-3.1-4.14c0.467-1.673,2.229-2.879,4.01-2.685
			c1.84,0.198,3.086,2.335,2.82,3.829C772.377,35.034,770.688,36.444,768.969,36.217"/>
		<path fill="#351718" d="M598.793,54.241c-0.139,1.54-2.121,3.149-3.736,3.03c-1.801-0.128-3.535-2.33-3.189-4.056
			c0.299-1.51,2.371-2.974,3.957-2.797C597.338,50.593,598.939,52.652,598.793,54.241"/>
		<path fill="#351718" d="M741.523,36.013c-1.721-0.437-2.947-2.438-2.533-4.109c0.434-1.762,2.387-3.042,4.037-2.641
			c1.645,0.399,2.982,2.543,2.582,4.125C745.17,35.094,743.104,36.423,741.523,36.013"/>
		<path fill="#351718" d="M799.811,33.475c-0.346,1.933-2.436,3.348-4.273,2.892c-1.598-0.399-2.777-2.373-2.471-4.119
			c0.307-1.744,2.16-2.941,3.947-2.631C798.666,29.901,800.227,31.854,799.811,33.475"/>
		<path fill="#351718" d="M697.848,40.986c-1.74-0.413-2.992-2.281-2.668-3.984c0.357-1.912,2.48-3.262,4.33-2.758
			c1.623,0.442,2.76,2.44,2.369,4.171C701.5,40.089,699.488,41.375,697.848,40.986"/>
		<path fill="#351718" d="M614.938,48.715c-0.311,1.611-2.4,3.122-3.934,2.844c-1.615-0.294-3.053-2.302-2.816-3.935
			c0.24-1.659,2.182-3.051,3.9-2.793C613.721,45.075,615.242,47.146,614.938,48.715"/>
		<path fill="#351718" d="M624.916,42.576c0.166-1.486,1.859-2.87,3.453-2.821c1.803,0.061,3.301,1.778,3.117,3.578
			c-0.191,1.863-1.818,3.242-3.65,3.078C626.131,46.261,624.717,44.404,624.916,42.576"/>
		<path fill="#351718" d="M575.84,58.482c0.285-1.48,1.891-2.844,3.43-2.858c1.236-0.011,2.148,0.649,2.701,1.688
			c0.998,1.869,1.033,2.765-0.65,4.198c-2.063,1.757-5.006,0.618-5.459-2.078C575.807,59.126,575.842,58.801,575.84,58.482"/>
		<path fill="#351718" d="M853.83,33.855c-0.344,1.663-2.424,3.032-4.01,2.638c-1.59-0.389-3.057-2.64-2.65-4.06
			c0.479-1.666,2.57-3.02,4.072-2.634C852.977,30.244,854.188,32.145,853.83,33.855"/>
		<path fill="#351718" d="M711.313,31.978c0.225-1.579,2.186-3.096,3.857-2.982c1.406,0.097,3.102,2.355,2.936,3.906
			c-0.176,1.603-2.205,3.127-3.867,2.904C712.527,35.567,711.076,33.674,711.313,31.978"/>
		<path fill="#351718" d="M658.711,43.681c-0.191,1.454-2.391,3.06-3.928,2.875c-1.533-0.181-3.09-2.298-2.855-3.885
			c0.246-1.694,2.166-3.105,3.855-2.828C657.396,40.106,658.918,42.105,658.711,43.681"/>
		<path fill="#351718" d="M674.699,37.77c-0.18,1.895-1.811,3.235-3.623,2.979c-1.818-0.258-3.143-2.028-2.85-3.792
			c0.256-1.517,1.813-2.778,3.434-2.791C673.316,34.162,674.863,35.998,674.699,37.77"/>
		<path fill="#351718" d="M785.111,30.024c-1.857-0.306-2.838-1.619-2.561-3.418c0.281-1.792,1.631-2.778,3.459-2.521
			c1.822,0.258,2.783,1.567,2.516,3.431C788.258,29.378,786.961,30.331,785.111,30.024"/>
		<path fill="#351718" d="M701.49,26.553c0.275-1.619,0.986-2.416,2.102-2.847c0.791-0.307,1.596-0.206,2.248,0.291
			c0.492,0.373,0.92,0.882,1.242,1.41c0.787,1.291,0.359,2.816-0.975,3.717c-1.475,0.987-3.387,0.717-4.152-0.717
			C701.602,27.751,701.576,26.927,701.49,26.553"/>
		<path fill="#351718" d="M603.65,43.456c-0.406,1.62-2.088,2.714-3.658,2.379c-1.598-0.34-2.605-2.039-2.205-3.726
			c0.389-1.65,2.047-2.525,3.781-2.003C603.029,40.549,603.994,42.1,603.65,43.456"/>
		<path fill="#351718" d="M688.311,29.427c1.859,0.273,2.553,1.635,2.186,3.551c-0.289,1.529-1.313,2.439-3.092,2.289
			c-2.814-0.238-3.541-3.273-2.105-4.945C686.152,29.326,687.152,29.201,688.311,29.427"/>
		<path fill="#351718" d="M584.195,50.921c-1.488-0.128-2.633-1.461-2.59-2.925c0.063-2.016,1.713-3.1,3.037-3.083
			c1.498,0.021,2.953,1.71,2.863,3.272C587.404,49.82,585.896,51.065,584.195,50.921"/>
		<path fill="#351718" d="M877.008,36.329c-1.668-0.327-2.695-1.831-2.428-3.534c0.264-1.668,1.773-2.732,3.52-2.38
			c2.182,0.442,2.6,1.673,2.297,3.465C880.082,35.747,878.773,36.678,877.008,36.329"/>
		<path fill="#351718" d="M755.613,26.303c0.172-0.331,0.42-1.114,0.908-1.683c0.697-0.804,2.457-0.875,3.578-0.221
			c0.877,0.502,1.4,1.3,1.365,2.343c-0.008,0.473-0.088,0.956-0.232,1.4c-0.361,1.146-1.355,1.826-2.516,1.778
			c-0.314-0.014-0.631-0.037-0.943-0.103C756.113,29.489,755.357,28.421,755.613,26.303"/>
		<path fill="#351718" d="M568.918,50.281c1.641,0.297,2.709,1.98,2.303,3.632c-0.373,1.508-1.713,2.472-3.219,2.313
			c-1.633-0.173-2.844-1.771-2.611-3.449C565.625,51.126,567.244,49.977,568.918,50.281"/>
		<path fill="#351718" d="M647.381,37.578c-0.131,1.757-1.779,2.968-3.291,2.714c-1.738-0.294-2.834-1.674-2.592-3.387
			c0.209-1.484,1.52-2.555,3.02-2.5C646.555,34.483,647.533,36.281,647.381,37.578"/>
		<path fill="#351718" d="M660.051,35.038c-1.67-0.297-2.654-1.858-2.256-3.59c0.346-1.508,1.711-2.497,3.158-2.306
			c1.637,0.22,2.832,1.791,2.604,3.436C663.326,34.207,661.723,35.33,660.051,35.038"/>
		<path fill="#351718" d="M802.842,19.239c-0.672-0.016-1.34-0.043-2.008-0.075c-1.006,0.353-1.854,1.233-2.002,2.304
			c-0.201,1.471,0.787,2.913,2.211,3.228c1.676,0.367,3.232-0.692,3.492-2.384C804.736,21.015,804.02,19.77,802.842,19.239z"/>
		<path fill="#351718" d="M815.51,27.711c-0.293,1.699-1.824,2.761-3.514,2.421c-1.635-0.326-2.621-1.94-2.236-3.654
			c0.338-1.493,1.678-2.395,3.242-2.179C814.789,24.548,815.814,25.944,815.51,27.711"/>
		<path fill="#351718" d="M842.67,27.592c-0.086,1.473-1.877,2.893-3.398,2.708c-1.359-0.17-2.488-1.64-2.396-3.109
			c0.104-1.568,1.27-2.689,2.797-2.695C841.301,24.491,842.764,26.006,842.67,27.592"/>
		<path fill="#351718" d="M730.83,29.618c-1.754-0.393-2.787-1.972-2.336-3.554c0.457-1.586,2.186-2.607,3.736-2.208
			c1.566,0.396,2.387,2.011,1.936,3.818C733.805,29.147,732.383,29.969,730.83,29.618"/>
		<path fill="#351718" d="M590.045,40.104c-1.246-0.027-2.641-1.613-2.648-3.014c-0.006-1.682,1.422-2.998,3.176-2.935
			c1.371,0.053,2.705,1.536,2.641,2.958C593.143,38.813,591.736,40.14,590.045,40.104"/>
		<path fill="#351718" d="M603.639,31.442c0.275-1.691,1.885-2.756,3.533-2.341c1.426,0.367,2.455,1.867,2.234,3.273
			c-0.225,1.458-2.229,2.782-3.631,2.397C604.412,34.396,603.406,32.839,603.639,31.442"/>
		<path fill="#351718" d="M774.117,24.609c-1.322-0.271-2.539-1.86-2.449-3.193c0.102-1.436,2.012-2.889,3.5-2.654
			c1.494,0.235,2.693,2.178,2.287,3.698C777.07,23.876,775.496,24.889,774.117,24.609"/>
		<path fill="#351718" d="M630.598,31.765c0.07-1.47,1.828-2.913,3.301-2.712c1.393,0.19,2.529,1.539,2.496,2.975
			c-0.041,1.679-1.367,2.982-3.029,2.988C631.908,35.015,630.516,33.379,630.598,31.765"/>
		<path fill="#351718" d="M679.73,27.067c-0.422,1.567-2.277,2.734-3.678,2.303c-1.371-0.424-2.303-1.947-2.059-3.378
			c0.289-1.664,1.916-2.671,3.588-2.216C678.945,24.147,680.053,25.847,679.73,27.067"/>
		<path fill="#351718" d="M573.131,45.57c-1.361-0.188-2.529-1.703-2.387-3.101c0.172-1.711,1.703-2.912,3.326-2.607
			c1.441,0.271,2.508,1.604,2.453,3.082C576.465,44.434,574.717,45.783,573.131,45.57"/>
		<path fill="#351718" d="M747.291,24.627c-1.221-0.023-2.578-1.62-2.584-3.032c-0.008-1.595,1.512-3.01,3.166-2.944
			c1.295,0.049,2.545,1.501,2.596,3.019C750.521,23.187,748.934,24.66,747.291,24.627"/>
		<path fill="#351718" d="M620.334,37.576c-0.104,1.308-1.602,2.5-3.057,2.435c-1.762-0.077-2.939-1.494-2.674-3.213
			c0.225-1.463,1.578-2.641,2.969-2.572C619.045,34.295,620.451,36.002,620.334,37.576"/>
		<path fill="#351718" d="M693.076,24.195c-1.402-0.151-2.547-1.582-2.428-3.034c0.143-1.73,1.631-2.949,3.264-2.671
			c1.389,0.241,2.512,1.576,2.547,3.036C696.498,22.921,694.664,24.365,693.076,24.195"/>
		<path fill="#351718" d="M766.561,16.944c-0.256,1.37-1.797,2.556-3.152,2.42c-1.447-0.153-2.912-2.099-2.625-3.495
			c0.316-1.543,2.189-2.691,3.699-2.266C765.902,14.003,766.828,15.487,766.561,16.944"/>
		<path fill="#351718" d="M578.926,34.576c-1.387-0.225-2.547-1.689-2.434-3.072c0.133-1.604,1.758-2.862,3.352-2.597
			c1.648,0.271,2.719,1.876,2.336,3.518C581.861,33.78,580.311,34.806,578.926,34.576"/>
		<path fill="#351718" d="M723.336,21.952c-0.234,1.556-2.064,2.83-3.49,2.427c-1.377-0.388-2.379-1.897-2.182-3.278
			c0.211-1.403,1.625-2.541,3.027-2.423C722.408,18.821,723.578,20.278,723.336,21.952"/>
		<path fill="#351718" d="M707.973,14.112c-0.584,0.483-1.002,1.158-1.045,1.858c-0.084,1.356,1.416,3.101,2.588,3.007
			c1.188-0.096,2.58-1.298,2.738-2.373c0.1-0.646-0.121-1.356-0.506-1.947C710.48,14.414,709.225,14.245,707.973,14.112z"/>
		<path fill="#351718" d="M623.398,23.484c1.063,0.377,2.107,1.936,1.941,3.024c-0.064,0.447-0.283,0.941-0.588,1.256
			c-1.525,1.589-3.217,1.428-4.367-0.365c-0.633-0.992-0.486-2.253,0.383-3.026c0.615-0.549,1.342-0.842,2.156-0.911
			C623.082,23.45,623.238,23.476,623.398,23.484"/>
		<path fill="#351718" d="M598.309,26.635c-0.277,1.264-2.221,2.47-3.389,2.104c-1.137-0.355-2.133-1.897-1.967-3.019
			c0.215-1.432,1.83-2.663,3.125-2.382C597.418,23.622,598.588,25.353,598.309,26.635"/>
		<path fill="#351718" d="M639.748,18.78c-0.527-0.051-1.057-0.1-1.586-0.149c-0.908,0.144-1.541,0.73-1.77,1.701
			c-0.334,1.405,0.289,2.686,1.48,3.056c1.623,0.499,2.881-0.107,3.35-1.629C641.668,20.335,641.088,19.217,639.748,18.78z"/>
		<path fill="#351718" d="M652.504,26.589c-0.104,0.298-0.16,0.623-0.316,0.889c-0.416,0.733-1.09,1.167-1.863,1.432
			c-0.83,0.288-1.568,0.096-2.197-0.52c-0.727-0.697-1.215-1.504-1.014-2.554c0.213-1.155,1.629-2.273,2.789-2.257
			c0.154,0.005,0.318,0.045,0.467,0.089C651.51,24.04,652.512,25.417,652.504,26.589"/>
		<path fill="#351718" d="M667.473,18.913c-0.9,0.107-1.799,0.207-2.693,0.291c-0.439,0.373-0.752,0.92-0.861,1.625
			c-0.219,1.429,0.527,2.581,1.859,2.861c1.598,0.331,2.91-0.536,3.154-2.08C669.123,20.366,668.57,19.369,667.473,18.913z"/>
		<path fill="#351718" d="M611.344,23.26c-1.461-0.248-2.197-1.271-1.977-2.734c0.229-1.476,1.242-2.282,2.652-2.111
			c1.654,0.198,2.525,1.42,2.178,3.031C613.895,22.85,612.85,23.516,611.344,23.26"/>
		<path fill="#351718" d="M828.635,24.396c-1.391-0.295-2.049-1.389-1.709-2.855c0.309-1.33,1.512-2.113,2.836-1.853
			c1.553,0.313,2.357,1.664,1.91,3.215C831.307,24.168,830.182,24.721,828.635,24.396"/>
		<path fill="#351718" d="M866.932,29.967c-1.127-0.164-2.266-1.694-2.078-2.781c0.193-1.096,1.803-2.155,2.889-1.901
			c0.934,0.226,1.859,1.492,1.826,2.493C869.529,28.892,868.047,30.127,866.932,29.967"/>
		<path fill="#351718" d="M855.678,24.231c-1.074-0.236-1.502-1.243-1.139-2.681c0.25-0.999,1.057-1.405,2.23-1.13
			c1.313,0.308,1.834,1.152,1.5,2.438C857.969,24.021,857.012,24.524,855.678,24.231"/>
	</g>
	<g>
		<path fill="none" d="M23.383,263.163c0,0,238.914,13.542,506.514-113.931c0,0,147.002-58.728,346.719-33.896"/>
		<text transform="matrix(0.9993 -0.037 0.037 0.9993 42.333 264.166)"><tspan x="0" y="0" fill="#FFFFFF" font-family="'Intro-Bold'" font-size="83">N</tspan><tspan x="64.775" y="-0.091" fill="#FFFFFF" font-family="'Intro-Bold'" font-size="83" rotate="-3.725">O</tspan><tspan x="132.837" y="-4.756" fill="#FFFFFF" font-family="'Intro-Bold'" font-size="83" rotate="-6.781">S</tspan><tspan x="187.879" y="-11.344" fill="#FFFFFF" font-family="'Intro-Bold'" font-size="83" rotate="-9.415">S</tspan><tspan x="242.781" y="-20.333" fill="#FFFFFF" font-family="'Intro-Bold'" font-size="83" rotate="-12.331">O</tspan><tspan x="309.329" y="-35.091" fill="#FFFFFF" font-family="'Intro-Bold'" font-size="83" rotate="-15.265">S</tspan><tspan x="362.217" y="-49.82" fill="#FFFFFF" font-family="'Intro-Bold'" font-size="83" rotate="-17.095"> </tspan><tspan x="383.017" y="-55.831" fill="#FFFFFF" font-family="'Intro-Bold'" font-size="83" rotate="-19.181">C</tspan><tspan x="444.46" y="-77.328" fill="#FFFFFF" font-family="'Intro-Bold'" font-size="83" rotate="-22.26">A</tspan><tspan x="496.504" y="-99.02" fill="#FFFFFF" font-family="'Intro-Bold'" font-size="83" rotate="-14.669">F</tspan><tspan x="539.338" y="-110.235" fill="#FFFFFF" font-family="'Intro-Bold'" font-size="83" rotate="-10.682">É</tspan><tspan x="585.093" y="-118.976" fill="#FFFFFF" font-family="'Intro-Bold'" font-size="83" rotate="-6.959">S</tspan></text>
	</g>
	<g>
		<path fill="#FFFFFF" d="M882.146,102.478c1.484-0.293,2.742-0.874,3.811-1.742c1.061-0.873,1.795-1.929,2.227-3.186l-3.307-1.133
			c-0.404,1.189-1.416,2.078-3.035,2.661c-0.982,0.353-3.438,0.434-4.428,0.358c-0.258,1.224-0.158,1.738-0.594,2.916
			c0.842,0.527,2.566,1.902,3.094,2.699c0.877,1.336,1.125,2.57,0.736,3.699l3.305,1.133c0.428-1.244,0.494-2.525,0.18-3.83
			C883.813,104.744,883.16,103.554,882.146,102.478z"/>
		<path fill="none" stroke="#FFFFFF" stroke-width="3" stroke-miterlimit="10" d="M681.141,107.891c0,0,88.941-35.968,196.094-6.98"
			/>
	</g>
</g>
</svg>
